<svg xmlns="http://www.w3.org/2000/svg" viewBox="0 0 1054.48 446.73"><defs><style>.cls-1{fill:#fff;}</style></defs><title>Ресурс 1</title><g id="Слой_2" data-name="Слой 2"><g id="Слой_1-2" data-name="Слой 1"><path class="cls-1" d="M25.76,31A81.4,81.4,0,0,0,26.88,59c2.89,14.25,10.27,26,20,36.53a314.47,314.47,0,0,0,39.42,36.22c6,4.6,11.68,9.64,17.36,14.64,20.3,17.85,32,40.37,36.67,66.77,3,17.21,4.63,34.61,6.94,51.92,3.15,23.56,6.08,47.15,9.12,70.73,1.34,10.42-1,19.6-8.71,27.15-12.56,12.26-19.9,27.57-25.38,43.92-2.44,7.25-4.58,14.61-6.88,21.91-.26.85-.08,2.18-1.55,2s-.86-1.51-.86-2.29q-.06-50.1-.06-100.21a3.11,3.11,0,0,1,1.54-3.06,5.91,5.91,0,0,0,2.55-7.1,6.23,6.23,0,0,0-5.91-4.37,6,6,0,0,0-5.91,4.35,5.77,5.77,0,0,0,2.49,7.09,3.29,3.29,0,0,1,1.61,3.33q0,49.81,0,99.62c0,.89.77,2.38-.86,2.61-1.8.25-1.48-1.54-1.75-2.47-3.75-12.85-7.71-25.61-13.22-37.85a91.84,91.84,0,0,0-19-27.65,29,29,0,0,1-8.71-25.18c2.91-23.79,6-47.55,9.1-71.32,1.42-10.86,3.51-21.66,2.55-32.71-1.16-13.53-4.91-26.07-13.72-36.74A56.77,56.77,0,0,0,51,185.78c-23.5-15.61-40.28-36.28-47.36-64-6.56-25.69-4.49-50.62,7.9-74.34A46.7,46.7,0,0,1,25.76,31Z"/><path class="cls-1" d="M56.56,2.64c-1.22,9.1-.66,17.78.17,26.5,1.39,14.73,8.21,26.65,18.16,37.14C81,72.74,88.46,77.54,95.5,82.85c16.74,12.61,31.55,27,41.89,45.49a88.34,88.34,0,0,1,11.77,44.46c-.13,15.62,0,31.25-.07,46.87,0,.87.78,2.39-.92,2.54s-1.24-1.41-1.44-2.35c-4.88-22.48-11.08-44.42-25.71-62.92-9.19-11.63-19.93-21.73-31-31.53-10.37-9.21-21.16-18-30.65-28.15-8.63-9.25-16.23-19.2-19-31.85-4-18.62-1.65-36.44,7.73-53.16A27.19,27.19,0,0,1,56.56,2.64Z"/><path class="cls-1" d="M79.33,0A68,68,0,0,0,80,21.61c2.52,13.5,10.82,23,22.05,30.07,8.45,5.33,17.36,9.92,25.19,16.21,6.63,5.33,12.58,11.27,16.77,18.77a38.3,38.3,0,0,1,5.17,19.15c0,10.78,0,21.56,0,32.33,0,.88.78,2.32-.89,2.59s-1.5-1.28-1.81-2.17c-6.78-19.52-17.18-36.65-33-50.18-6.07-5.17-12.75-9.53-19.12-14.3-8.06-6-15.29-12.89-20.65-21.51-9-14.46-8.43-34.24,1.32-47.83A25.74,25.74,0,0,1,79.33,0Z"/><path class="cls-1" d="M544.8,231.07q0-106.3-.06-212.62c0-2.46.64-3,3-3,2.84-.06,2.25,1.63,2.25,3.18V211.12q0,116.2.07,232.43c0,2.61-.66,3.35-3.2,3.15-1.58-.13-2.33-.45-2.11-2.13a15.42,15.42,0,0,0,0-2Z"/><path class="cls-1" d="M323.51,204.44c0-10.77.05-21.55,0-32.33,0-2,.41-2.71,2.54-2.69s2.61.62,2.6,2.65c-.07,19.8,0,39.61-.11,59.41,0,2.61.7,3.36,3.26,3.22,4-.21,8-.19,11.94,0,2.28.11,2.73-.74,2.72-2.84-.07-19.8,0-39.61-.09-59.41,0-2.19.39-3.05,2.83-3s2.32,1.23,2.32,2.91q0,29.26,0,58.54c0,3.79,0,3.79,3.72,3.79s7.58-.11,11.36.05c2.16.09,2.78-.57,2.77-2.77-.08-19.9,0-39.81-.08-59.71,0-1.83.19-2.8,2.46-2.8s2.71.7,2.71,2.82c-.08,19.71,0,39.42-.1,59.12,0,2.36.27,3.79,3.06,3.31,1.19-.21,1.77.35,1.75,1.64-.05,3.69-.09,7.38,0,11.06.06,2.07-1.27,1.8-2.51,1.77s-2.69.43-2.58-1.69c.08-1.74-.13-3.51.05-5.24.23-2.14-.69-2.54-2.64-2.53-15,.07-29.91,0-44.87.09-2.33,0-3.16-.45-3.12-3C323.6,226,323.51,215.22,323.51,204.44Z"/><path class="cls-1" d="M208.2,221.22c0,5.34,0,10.68,0,16,0,1.8-.32,2.63-2.38,2.54-1.83-.09-2.79-.25-2.77-2.5.12-10.39.08-20.77,0-31.16,0-1.17.77-3-.64-3.4-1.76-.52-3.85-.8-5.58.56a12.34,12.34,0,0,0-3.69,5.48c-3.55,9-5.55,18.39-7.24,27.83-.58,3.19-2.2,3.28-4.57,3.13-1.23-.08-1.41-.62-1.16-1.71,2.38-10.5,4.41-21.08,8.24-31.2,1-2.64,4.13-4.85,3.83-7.1s-2.84-4.43-3.86-7A100.93,100.93,0,0,1,182.86,172c-.15-.83-1.2-2.4.73-2.41,1.47,0,3.71-1.22,4.17,1.63a96.7,96.7,0,0,0,2.92,12.46c.85,2.78,1.84,5.52,2.9,8.23a11.31,11.31,0,0,0,3,4.27c1.72,1.59,3.91,1.5,5.78,1s.76-2.51.78-3.81c.09-7.18.12-14.37,0-21.55,0-2.07.8-2.37,2.58-2.37s2.61.31,2.57,2.37c-.12,7.28-.08,14.57,0,21.85,0,1.18-.74,3,.59,3.44a5.79,5.79,0,0,0,5.56-.67A12.78,12.78,0,0,0,218,191.2a90,90,0,0,0,5.39-19.3c.25-1.42.46-2.46,2.42-2.48,2.37,0,3.2.32,2.65,3-1.57,7.72-3.4,15.34-6.63,22.55-1.68,3.74-1.64,6.12,0,9.82C226,214,227.7,223.87,230,233.57a9.13,9.13,0,0,1,.54,2.84c-.12,1.1,1.85,2.7-.57,3.28-2.89.69-4,0-4.54-2.7-2-9.2-3.75-18.44-7.05-27.3a20.7,20.7,0,0,0-2.89-5.35c-1.71-2.24-4.05-2-6.37-1.79-1.33.12-.93,1.28-.93,2.07C208.19,210.15,208.2,215.69,208.2,221.22Z"/><path class="cls-1" d="M387.92,312.54c.8-2.44,1.62-4.87,2.41-7.32q6.81-21,13.59-42.07c.85-2.6,2.41-3.41,5-2.72.68.18,1,.51,1.05,1.17s0,1.16,0,1.74q0,32.32,0,64.65c0,1.81.06,3.11-2.51,3.09S405,330,405,328c0-16.49,0-33,0-49.6-1.24.3-1.08,1.34-1.31,2q-7.83,23.91-15.58,47.85c-.51,1.58-.93,2.71-3,2.75-2.37,0-2.93-.72-2.92-3q.12-32.47,0-64.94c0-1.86.25-2.75,2.47-2.77s2.67.85,2.66,2.89c-.08,15.73-.05,31.45-.05,47.17v2Z"/><path class="cls-1" d="M412.13,187.56l-8.07,24.78Q400,224.79,396,237.24a3.74,3.74,0,0,1-5.12,2.52c-1.48-.54-.86-1.8-.86-2.75q0-27.67,0-55.34c0-3.21.16-6.42-.06-9.61-.16-2.32,1-2.44,2.77-2.51,2-.07,2.39.68,2.38,2.54-.08,16.21-.06,32.43-.07,48.64,0,.39,0,.77.06,1.2,1.09-.14,1-1.06,1.17-1.71,5.24-16.14,10.53-32.27,15.62-48.46.89-2.83,2.79-2.14,4.58-2.12,2.17,0,1.32,1.82,1.32,2.86,0,21.46,0,42.92.06,64.38,0,1.87,0,3-2.52,3s-2.55-1.09-2.54-3c.06-15.92,0-31.84,0-47.77v-1.4Z"/><path class="cls-1" d="M241.76,278.07c-3.73,11.42-7.34,22.46-10.94,33.5-1.86,5.71-3.84,11.39-5.5,17.17-.74,2.59-2.47,2.32-4.28,2.22-2.28-.13-1.46-1.95-1.46-3.11,0-21.46,0-42.91-.06-64.36,0-2,.08-3.21,2.71-3.15,2.42.06,2.34,1.25,2.34,2.93q0,23.44,0,46.88a3.45,3.45,0,0,0,.51,2.68c1.3-3.86,2.53-7.43,3.69-11q6.27-19.37,12.5-38.75a3.69,3.69,0,0,1,5.1-2.59c1.36.44,1,1.53,1,2.42,0,7.86,0,15.72,0,23.58,0,13.89,0,27.77,0,41.65,0,2-.38,2.94-2.7,2.94s-2.38-1.18-2.38-2.91q.06-23.73,0-47.47A3.19,3.19,0,0,0,241.76,278.07Z"/><path class="cls-1" d="M323.07,278.3,317,297q-5.09,15.63-10.18,31.25c-.44,1.35-.62,2.77-2.71,2.8-2.28,0-3.22-.42-3.21-3q.17-32.47,0-64.94c0-2,.47-2.65,2.56-2.68,2.24,0,2.47.91,2.47,2.77-.07,16.11-.06,32.23-.07,48.34v1.4c1.13-.09,1-.95,1.2-1.52,5.21-16.05,10.46-32.08,15.52-48.17.76-2.42,2-2.86,4.19-2.8,1.92,0,1.91,1,1.91,2.4,0,8.84,0,17.67,0,26.5,0,12.82,0,25.63,0,38.45,0,1.84.22,3.35-2.58,3.29-2.63-.06-2.41-1.48-2.41-3.21q.07-24.31.08-48.63a3.39,3.39,0,0,0-.16-.83Z"/><path class="cls-1" d="M260.2,295.16c0-10.68.06-21.35,0-32,0-2.11.43-2.9,2.71-2.85,6.69.16,13.4.15,20.09,0,2.17-.05,2.53.79,2.54,2.69s-.51,2.53-2.45,2.48c-5.24-.12-10.49,0-15.73-.07-1.58,0-2.24.39-2.22,2.11.09,6.21.07,12.42,0,18.63,0,1.49.43,2.08,2,2,2.81-.1,5.63-.08,8.45,0a12.32,12.32,0,0,1,12.38,12.42q.17,9,0,18A12,12,0,0,1,276,330.77c-4.64.14-9.31-.2-14-.2-2,0-1.82-1.22-1.82-2.52Q260.21,311.59,260.2,295.16Zm4.94,14c0,4.76.05,9.51,0,14.26,0,1.52.47,2.07,2,2,3-.06,6,.1,9,0,4.15-.11,6.76-2.63,6.83-6.76q.15-9,0-18a7.32,7.32,0,0,0-7.28-7.53c-2.81-.16-5.63,0-8.44-.15-1.68-.08-2.17.57-2.13,2.2C265.2,299.89,265.14,304.55,265.14,309.2Z"/><path class="cls-1" d="M310.56,204.87c0,10.67-.05,21.35,0,32,0,2-.26,2.9-2.62,2.92-2.54,0-2.5-1.22-2.49-3.06.06-10.48,0-21,.09-31.43,0-2.36-.69-3-2.95-2.88-4,.17-8,.16-11.93,0-2.24-.09-3,.5-3,2.88.13,10.48,0,21,.08,31.44,0,1.82.06,3.07-2.49,3.05-2.34,0-2.63-.89-2.63-2.92q.1-32.31,0-64.62c0-2.11.41-2.87,2.69-2.86s2.46,1,2.44,2.8c-.08,7.47.07,14.94-.1,22.41-.05,2.38.73,2.93,2.95,2.84,3.87-.17,7.77-.2,11.64,0,2.46.13,3.35-.43,3.28-3.13-.22-7.37,0-14.75-.11-22.12,0-1.83.17-2.8,2.44-2.8s2.7.76,2.67,2.85C310.5,183.13,310.56,194,310.56,204.87Z"/><path class="cls-1" d="M458.53,204.56c0,10.77,0,21.55,0,32.32,0,2-.26,2.91-2.62,2.93-2.54,0-2.5-1.21-2.49-3.05.05-10.49,0-21,.08-31.46,0-2.36-.7-3-2.94-2.86-4,.17-8,.16-11.94,0-2.21-.09-3,.43-3,2.83.15,10.58,0,21.16.1,31.75,0,1.84-.21,2.77-2.45,2.78s-2.7-.74-2.69-2.85q.1-32.32,0-64.66c0-2.06.35-2.86,2.66-2.89,2.55,0,2.49,1.23,2.47,3-.06,7.57,0,15.14-.07,22.71,0,1.8.5,2.34,2.29,2.29,4.37-.12,8.74-.14,13.11,0,2,.07,2.43-.64,2.4-2.49-.09-7.67,0-15.34-.08-23,0-1.87.45-2.56,2.42-2.52s2.75.27,2.72,2.51C458.46,182.81,458.53,193.69,458.53,204.56Z"/><path class="cls-1" d="M471.48,204.4c0-10.78,0-21.55-.05-32.33,0-2,.54-2.64,2.59-2.65s2.6.67,2.57,2.68c-.11,7.57,0,15.14-.09,22.71,0,2.09.63,2.68,2.63,2.56,2.62-.16,5.25-.11,7.87,0a12.22,12.22,0,0,1,12,11.56c.28,6.59.25,13.2,0,19.79a11.54,11.54,0,0,1-11.46,11c-4.56.1-9.13-.06-13.69.06-1.9.05-2.48-.51-2.47-2.45C471.52,226.33,471.48,215.36,471.48,204.4Zm5.07,14.1c0,4.66,0,9.32,0,14,0,1.4.25,2.18,1.88,2.14,3.11-.08,6.22.11,9.32,0a6.33,6.33,0,0,0,6.35-6.59q.14-9,0-18c-.06-4.44-3.06-7.39-7.56-7.55-2.61-.09-5.24.05-7.85-.06-1.66-.07-2.19.53-2.16,2.17C476.6,209.19,476.54,213.85,476.55,218.5Z"/><path class="cls-1" d="M341.66,295.32c0-10.67.09-21.35-.06-32,0-2.5.76-3.1,3.11-3,4.07.18,8.15,0,12.23.06,7.25.08,12.28,5.09,12.32,12.27,0,5.72.05,11.45,0,17.18-.06,7.32-5.32,12.6-12.68,12.76a60.16,60.16,0,0,1-7,0c-2.54-.24-3,.78-3,3.12.15,7.37,0,14.75.07,22.13,0,1.74.19,3.11-2.42,3.16-2.78.05-2.61-1.42-2.6-3.29C341.68,316.87,341.66,306.1,341.66,295.32Zm5-14.16c0,4.74.06,9.49,0,14.23,0,1.67.52,2.22,2.16,2.16,2.71-.1,5.43.06,8.13-.06a7.25,7.25,0,0,0,7.3-7.47c.07-5.9.05-11.81,0-17.72a6.46,6.46,0,0,0-6.67-6.85c-2.81-.09-5.63.08-8.43-.06-1.87-.09-2.56.44-2.5,2.41C346.75,272.25,346.66,276.7,346.66,281.16Z"/><path class="cls-1" d="M242.28,204.6c0-10.77.05-21.53,0-32.3,0-2,.32-2.91,2.65-2.86q11.36.23,22.71,0c2.18,0,2.27.95,2.29,2.61s-.24,2.62-2.35,2.56c-5.82-.16-11.65,0-17.47-.1-2,0-2.93.37-2.86,2.69.17,5.91.15,11.83,0,17.74-.05,2,.67,2.46,2.5,2.42,4.46-.1,8.93.09,13.39-.09,2.21-.09,2.24,1,2.29,2.63.05,1.8-.32,2.63-2.39,2.54-4.26-.16-8.54,0-12.81-.09-2.13-.06-3,.33-3,2.83.17,8.92.12,17.84,0,26.77,0,2,.48,2.7,2.56,2.65,5.92-.12,11.84.06,17.76-.09,2.11-.06,2.37.82,2.35,2.55s-.08,2.66-2.28,2.62c-7.66-.14-15.33-.12-23,0-2,0-2.4-.57-2.38-2.48C242.33,226.33,242.28,215.47,242.28,204.6Z"/><path class="cls-1" d="M203.44,121.8q0,10,0,20.09c0,1.29-.2,2.65,1.81,2.48,1.4-.13,1.51.79,1.5,1.88,0,2.52-.11,5.05,0,7.57.09,1.88-1.07,1.72-2.25,1.68s-2.32.31-2.41-1.6c-.08-1.63,1.06-3.85-.7-4.78-1.3-.69-3.23-.19-4.88-.2-3.3,0-6.61.1-9.91,0-1.91-.08-2.71.53-2.41,2.47.1.67-.07,1.37,0,2,.3,2-.79,2.19-2.4,2.15s-2.68,0-2.46-2.09a53.67,53.67,0,0,0,0-5.53c0-1.67-.29-3.19,1.91-4.2,1.72-.79,1.7-3.11,1.7-5,0-9.8.05-19.61.1-29.41.05-7.35,3.17-10.44,10.49-10.45,2.52,0,5.06.12,7.57,0,1.83-.11,2.32.51,2.29,2.29C203.39,108,203.45,114.91,203.44,121.8ZM198.8,124V108.86c0-5.46,0-5.46-5.53-5.39-4.28.06-5.57,1.29-5.61,5.56-.06,5.53.05,11-.11,16.57-.16,5.89.66,11.81-.54,17.67-.28,1.35.78,1.06,1.46,1.07,2.62,0,5.25-.11,7.85.06,2.15.14,2.56-.77,2.52-2.69C198.74,135.8,198.8,129.89,198.8,124Z"/><path class="cls-1" d="M179.42,295.55c0-7.48,0-14.95,0-22.43a12.79,12.79,0,0,1,12.77-12.77,24.37,24.37,0,0,1,7.22.64,11,11,0,0,1,8,9.42c.08.82.75,2.28-.89,2.17-1.4-.09-3.4,1.22-4.11-1.29-1.46-5.17-4.41-6.66-11.44-5.83-3.82.45-6.28,3.58-6.28,8.1q0,22,0,44c0,4.8,1.92,7.38,5.85,8.07,6.28,1.08,10.34-.6,11.62-5.39.85-3.17,3.13-2.07,4.59-1.76,1.73.36.59,2.11.28,3.17-2,6.88-8.51,10.57-16.29,9.37-7-1.09-11.25-6.05-11.28-13.32S179.42,302.92,179.42,295.55Z"/><path class="cls-1" d="M300.2,124c0-7.47.08-14.95,0-22.42,0-2.05.55-2.74,2.61-2.6,2.51.17,5,0,7.56,0,5.51.17,9,3.45,9.09,8.9.06,4,1.17,8.21-1.8,11.77a.9.9,0,0,0,.09,1.3c.33.35.67.69,1,1.07,2.67,3.41,2.87,19.94.25,23.32a8.42,8.42,0,0,1-6.74,3.49c-3.2.06-6.41-.09-9.6,0-2,.09-2.45-.64-2.43-2.52C300.26,138.9,300.2,131.43,300.2,124Zm4.56,9.45v4.36c0,7.27,0,7.27,7.27,6.52,2.45-.26,4-1.56,4-4.1.09-4.26.06-8.52,0-12.79a4.21,4.21,0,0,0-2.85-4c-2.43-1-5-.47-7.48-.44-1.29,0-1,1.21-1,2C304.74,127.79,304.76,130.6,304.76,133.41Zm0-22.4c0,1.93,0,3.86,0,5.79,0,1.09.36,1.48,1.46,1.63,6.83,1,8.9-.79,8.75-7.52,0-.48,0-1,0-1.45,0-5-1.22-5.72-7.3-5.94-4.85-.18-2.28,3.28-2.85,5.18A8.47,8.47,0,0,0,304.76,111Z"/><path class="cls-1" d="M264,124.17c0,7.09,0,14.17,0,21.25,0,1.48,1,3.52-2.19,3.54-3,0-2.38-1.76-2.38-3.42,0-13-.05-26,0-39,0-2.18-.46-3-2.86-3-8,.1-8.34.34-8.33,8.36q0,13.09,0,26.19a17.8,17.8,0,0,1-1.15,6.85,7.43,7.43,0,0,1-4.81,4.71c-1,.29-2.58,1.14-2.88-.47-.22-1.23-1.39-3.42,1.44-3.86,1.29-.2,1.8-1.37,2.2-2.49a14.41,14.41,0,0,0,.6-4.89c0-9.7,0-19.4,0-29.1,0-6.52,3.33-9.83,9.87-9.89,2.43,0,4.87.17,7.28,0s3.34.44,3.27,3.12C263.87,109.42,264,116.8,264,124.17Z"/><path class="cls-1" d="M683.77,266.38c0-4.37,0-8.74,0-13.1,0-1.53.06-2.47,2.1-2.48,2.22,0,2,1.23,2,2.59,0,7.37.07,14.75,0,22.12,0,2.08.38,2.93,2.68,2.81,3.87-.21,7.76-.17,11.64,0,2,.08,2.65-.45,2.62-2.54-.13-7.47,0-14.94-.07-22.41,0-1.47-.06-2.52,2-2.55,2.27,0,1.93,1.26,1.93,2.6,0,7.37.07,14.75-.05,22.12,0,2.07.34,2.92,2.65,2.8a116.07,116.07,0,0,1,11.65,0c2.13.09,2.81-.44,2.76-2.69-.15-7.37,0-14.75-.07-22.12,0-1.55-.12-2.73,2.17-2.71s1.86,1.37,1.86,2.66c0,7.37.09,14.75-.05,22.12,0,2.16.49,2.91,2.72,2.76,1.27-.08,3.42-.93,3.81.73A18.27,18.27,0,0,1,736,286c-.16.92-1.72.4-2.63.39s-.93-.91-.82-1.52c.58-3-1.08-3.14-3.43-3.12-14.17.08-28.34,0-42.51.1-2.37,0-2.93-.7-2.84-2.93C683.89,274.73,683.77,270.55,683.77,266.38Z"/><path class="cls-1" d="M292.35,124.14c0,5.14,0,10.28,0,15.42,0,5.72-3.56,9.27-9.21,9.36-8.29.13-11.25-2.78-11.25-11.09q0-14.4,0-28.81c0-6.47,3.64-10,10.12-10,6.92,0,10.31,3.27,10.34,10C292.37,114.05,292.35,119.1,292.35,124.14Zm-4.57.13h0c0-5.43.08-10.86,0-16.28-.06-3.14-1.74-4.37-5.57-4.41s-5.62,1.23-5.65,4.29q-.11,16,0,32c0,3.45,1.65,4.54,6,4.49,3.68,0,5.21-1.35,5.24-4.67C287.82,134.55,287.78,129.41,287.78,124.27Z"/><path class="cls-1" d="M588.26,330.48c.21-12.75,9.92-22.19,22.55-21.93,11.89.25,21.33,10.36,21,22.54-.29,12.62-9.86,21.9-22.41,21.74A21.69,21.69,0,0,1,588.26,330.48Zm4.32.21c0,10.13,7.56,18.05,17.32,18.06,10,0,17.65-7.84,17.64-18.11a17.66,17.66,0,0,0-17.52-18C600.34,312.6,592.6,320.6,592.58,330.69Z"/><path class="cls-1" d="M631.85,260.42c.26,12-9.18,22.24-20.79,22.5-12.68.29-22.47-8.87-22.8-21.32s9-22.77,20.92-23C622,238.44,631.59,247.65,631.85,260.42Zm-39.27.54c0,10.09,7.66,17.92,17.5,17.88s17.43-7.86,17.46-18-7.76-18.15-17.7-18.12C600.19,242.76,592.57,250.81,592.58,261Z"/><path class="cls-1" d="M645.11,257.65c1.35-1.63,2.28-3.35,3.85-4.48a14.61,14.61,0,0,1,15.18-1.58,15.1,15.1,0,0,1,9.4,12.73c1,8.81-4.39,16.17-12.74,17.76s-16.31-3.35-18.66-11.93a38.85,38.85,0,0,1-.37-18.47c1.53-7.32,6.1-11.38,13.93-12.32,4.89-.59,9.84-.69,14.76-1.11,1.09-.09,1.36.22,1.36,1.21s.12,2.21-1.43,2.3c-2.22.14-4.45.37-6.67.37a54.71,54.71,0,0,0-8.39.61C648.53,243.78,644,250.26,645.11,257.65Zm24.54,9.11c.14-6.87-5.06-12.75-11.47-12.95-6.64-.22-12.3,5.4-12.45,12.34a12.18,12.18,0,0,0,11.7,12.68C664.26,279,669.51,273.76,669.65,266.76Zm-24.7-8.3-.18-.49c-.06.07-.18.14-.18.21a2.41,2.41,0,0,0,.07.53A3.47,3.47,0,0,0,645,258.46Z"/><path class="cls-1" d="M630.76,137c0,4.85,0,9.19,0,13.53,0,1.41.17,2.57-2,2.57s-2.06-1-2-2.5q0-18.5,0-37c0-1.32-.34-2.59,1.91-2.64s2.17,1.24,2.14,2.74a19.17,19.17,0,0,0,.18,2c9.34-7,17.62-6.88,23.81.17a16.09,16.09,0,0,1-.43,21.7C647.87,144.24,639.63,144.18,630.76,137Zm-.3-10.54c-.05,7.11,5.19,12.56,12.12,12.58a12.43,12.43,0,0,0,12.17-12.64A12.27,12.27,0,0,0,642.69,114C635.8,113.91,630.51,119.3,630.46,126.44Z"/><path class="cls-1" d="M862.13,137.12c0,4.68,0,8.94,0,13.21,0,1.47.3,2.81-2.1,2.76-2.22-.05-1.94-1.27-1.94-2.62q0-18.48,0-37c0-1.45-.1-2.54,2-2.53s2.08,1.11,2,2.55c0,.67.07,1.34.14,2.65,4.26-4.73,9.21-6.52,15.06-5.41a15.45,15.45,0,0,1,9.59,6.11,16.07,16.07,0,0,1-1.31,20.79C879.2,144.2,871.55,144.13,862.13,137.12Zm-.3-10.48A12.09,12.09,0,0,0,874.15,139c6.54-.07,11.92-5.7,12-12.55A12.26,12.26,0,0,0,873.86,114C867,114,861.8,119.48,861.83,126.64Z"/><path class="cls-1" d="M646.49,346.74c0,4.93,0,9.37,0,13.81,0,1.52-.25,2.26-2,2.25s-2.06-.66-2.05-2.21q.08-18.78,0-37.56c0-1.42,0-2.36,1.95-2.3,1.64,0,2.27.49,2.13,2.15-.06.8-.32,1.71.33,2.46,9-6.85,17.22-6.81,23.46.07a16.15,16.15,0,0,1,0,21.72C663.81,354,655.51,354,646.49,346.74Zm11.68-23c-6.82,0-12,5.57-12,12.73a12.08,12.08,0,0,0,12.38,12.32c6.53-.08,11.89-5.75,11.92-12.6A12.28,12.28,0,0,0,658.17,323.7Z"/><path class="cls-1" d="M213.93,123.82c0-7.47.06-14.94,0-22.4,0-1.9.48-2.53,2.43-2.48,5.14.12,10.29.11,15.42,0,1.9,0,2.45.53,2.52,2.45.07,2.19-1,2.3-2.63,2.27-3.59-.07-7.18,0-10.77,0-1.65,0-2.49.3-2.42,2.21q.19,5.24,0,10.47c-.06,1.76.69,2.13,2.23,2.08,2.81-.08,5.63.08,8.43-.06,1.89-.09,2,.88,2,2.32s-.12,2.42-2,2.33c-2.81-.13-5.63,0-8.44-.06-1.58-.05-2.24.4-2.22,2.12q.15,8.58,0,17.17c0,1.72.63,2.14,2.21,2.1,3.69-.09,7.38.05,11.06-.07,1.81-.05,2.58.36,2.54,2.38,0,1.82-.64,2.29-2.38,2.26-5.24-.1-10.48-.11-15.72,0-1.84,0-2.28-.6-2.26-2.35C214,139,213.93,131.38,213.93,123.82Z"/><path class="cls-1" d="M328.55,123.84c0-7.37,0-14.74,0-22.11,0-1.77.09-2.86,2.41-2.84s2.24,1.11,2.22,2.73c-.06,4.75,0,9.5-.06,14.25,0,1.84.44,2.48,2.4,2.53,11.14.23,13.33,2.53,13.33,13.63,0,2.72.06,5.43,0,8.15a8.67,8.67,0,0,1-8.73,8.66c-3.1.07-6.21-.08-9.31.06-1.88.08-2.27-.67-2.25-2.37C328.59,139,328.55,131.4,328.55,123.84Zm4.59,9.91v4.36c0,6.67,0,6.67,6.8,6.19,2.74-.2,4.26-1.69,4.31-4.45q.09-6,0-11.92c-.05-3-1.87-4.81-4.9-5-1.45-.11-2.91,0-4.37,0s-1.9.49-1.87,1.87C333.18,127.74,333.13,130.74,333.14,133.75Z"/><path class="cls-1" d="M364.77,123.8c0-7.46.06-14.93,0-22.4,0-1.9.51-2.51,2.46-2.46,5.13.13,10.28.1,15.42,0,1.84,0,2.51.41,2.54,2.42s-1,2.33-2.64,2.3c-3.59-.07-7.18,0-10.77,0-1.65,0-2.51.29-2.44,2.2q.18,5.23,0,10.47c-.06,1.76.71,2.13,2.25,2.09,2.81-.08,5.63.06,8.43-.05,1.87-.08,2,.89,2,2.35s-.17,2.38-2,2.29c-2.9-.13-5.82,0-8.73,0-1.35,0-1.91.45-1.9,1.85,0,5.91.05,11.83,0,17.74,0,1.74,1,1.78,2.25,1.77,3.79,0,7.57.09,11.35-.05,1.94-.07,2.2.78,2.2,2.42s-.4,2.24-2.12,2.21c-5.33-.09-10.67-.11-16,0-1.87,0-2.27-.66-2.25-2.36C364.81,138.93,364.77,131.37,364.77,123.8Z"/><path class="cls-1" d="M594.32,122.17c0,6.48-.06,12.1,0,17.72,0,1.69-.52,2.14-2.14,2.09s-2.26-.2-2.25-2q.1-19.08,0-38.16c0-2,1.07-1.79,2.38-1.86,1.48-.08,2,.33,2,1.92-.1,4.32,0,8.65,0,13.63,5-4.67,9.61-8.74,13.88-13.17,2.25-2.35,4.61-2.69,7.93-2.11-5.83,5.48-11.28,10.82-17,15.85-2.29,2-2.29,3.13-.2,5.29,6.33,6.55,12.39,13.35,18.79,20.3-3.18.63-5.45.29-7.59-2.21C605.22,133.73,600,128.3,594.32,122.17Z"/><path class="cls-1" d="M896.47,266.61c-3.89,0-7.78.12-11.65-.05-2.07-.09-2.25.8-1.9,2.4,1,4.74,3.57,8.22,8.38,9.47s9-.14,12.41-3.76a9,9,0,0,0,1.54-2.11c.86-1.78,1.82-.66,2.82-.23,1.29.55,1,1.25.47,2.28-3.54,6.53-12.17,9.52-19.76,6.77-7-2.54-11.31-10.5-9.78-18.14a15.83,15.83,0,0,1,31.28.94c.2,1.89-.12,2.56-2.17,2.48C904.24,266.49,900.35,266.61,896.47,266.61Zm9.32-3.5a10.86,10.86,0,0,0-10.42-9.31,11.5,11.5,0,0,0-11.76,7.66c-.42,1.36-.05,1.67,1.27,1.67C891.84,263.09,898.8,263.11,905.79,263.11Z"/><path class="cls-1" d="M761.31,266.61c-3.88,0-7.77.11-11.65-.05-2-.08-2.34.65-2,2.35,1,4.74,3.55,8.24,8.36,9.5s9-.09,12.42-3.7A8.53,8.53,0,0,0,770,272.6c.83-1.73,1.77-.78,2.81-.3,1.22.56,1.12,1.18.54,2.27-3.41,6.4-11.94,9.48-19.48,7-7-2.35-11.52-10.3-10.15-18,1.48-8.3,8-13.58,16.51-13.28A15.59,15.59,0,0,1,775,263.84c.26,2,.08,3-2.38,2.83C768.89,266.44,765.09,266.61,761.31,266.61Zm9.38-3.5c-1.41-5.75-5.34-9.06-10.72-9.32a11.37,11.37,0,0,0-11.41,7.31c-.57,1.5-.48,2.06,1.3,2C756.73,263.07,763.61,263.11,770.69,263.11Z"/><path class="cls-1" d="M642.93,196.7c-3.79,0-7.58.13-11.36,0-2.33-.12-2.58.83-2.12,2.71,1.16,4.71,3.79,8.11,8.64,9.23a12,12,0,0,0,12.3-4.08,8.82,8.82,0,0,0,1.36-1.88c.87-1.8,1.84-.61,2.82-.2,1.32.55,1,1.29.44,2.29-3.56,6.54-12.18,9.5-19.77,6.74-7-2.55-11.29-10.52-9.75-18.16a15.83,15.83,0,0,1,31.28,1c.21,1.94-.21,2.53-2.2,2.45C650.7,196.59,646.81,196.7,642.93,196.7Zm9.38-3.5c-1.13-5.57-5.12-9-10.54-9.32a11.35,11.35,0,0,0-11.57,7.48c-.35,1-.76,1.86.95,1.85C638.19,193.18,645.23,193.2,652.31,193.2Z"/><path class="cls-1" d="M590,190.89c0-6.21.07-12.42,0-18.63,0-1.92.54-2.49,2.45-2.41,4.55.22,9.11-.19,13.66.35,5.91.7,9.71,4.68,9.82,10.32.11,6.09-3.17,10-9.3,11a46.66,46.66,0,0,1-10.15.46c-1.85-.1-2.29.54-2.26,2.29.11,5.05,0,10.09.06,15.14,0,1.53,0,2.5-2.09,2.49s-2.19-.75-2.17-2.4C590.05,203.31,590,197.1,590,190.89Zm4.22-10.24c0,2.17,0,3.92,0,5.67,0,.76-.13,1.67,1.07,1.62,3.86-.18,7.77.57,11.57-.54a6.72,6.72,0,0,0-.5-13,23.52,23.52,0,0,0-4.89-.41c-2.31,0-5.26-1-6.75.4S594.46,178.8,594.23,180.65Z"/><path class="cls-1" d="M695.19,137.16c-8.76,7-17.54,7-23.67.3a16.14,16.14,0,0,1,.44-22.35c6.45-6.45,15.07-6.17,23,.76a3.68,3.68,0,0,0,.23-2.48c-.12-1.64.19-2.44,2.15-2.41s2,.85,1.94,2.29q-.07,13.23,0,26.47c0,1.47-.13,2.3-2,2.25-1.62,0-2.33-.44-2.11-2.13A23.24,23.24,0,0,0,695.19,137.16Zm.24-10.52c.07-7.16-5.11-12.65-12-12.67a12.24,12.24,0,0,0-12.21,12.21c-.13,6.93,5.27,12.74,11.93,12.84C690.13,139.12,695.36,133.82,695.43,126.64Z"/><path class="cls-1" d="M734.82,326.17c0-1.47.06-2.32,0-3.16-.14-1.47.12-2.25,2-2.3,2,0,2.14.82,2.13,2.41-.06,8.63,0,17.26,0,25.89,0,1.43.39,2.8-2.06,2.75s-1.95-1.48-2-2.85c0-.55,0-1.1,0-2.24-4.26,4.33-8.94,6.22-14.47,5.45A15.07,15.07,0,0,1,710.16,346a16.17,16.17,0,0,1,2.35-22C717.47,319.53,727.6,317.77,734.82,326.17Zm-23.93,10A12.39,12.39,0,0,0,723,348.75c6.8,0,11.92-5.24,12-12.3s-5-12.69-11.88-12.75A12.26,12.26,0,0,0,710.89,336.13Z"/><path class="cls-1" d="M998.83,116.49a28.73,28.73,0,0,0,0-3.18c-.23-1.75.37-2.31,2.21-2.33,2,0,1.86,1,1.86,2.37q0,13.08,0,26.17c0,1.48.07,2.5-2,2.5s-2.12-1.05-2-2.52c0-.65,0-1.3,0-2.53-4.33,4.33-9.08,6.23-14.72,5.37a15.13,15.13,0,0,1-10.1-6.29,16.18,16.18,0,0,1,2.7-22A15.54,15.54,0,0,1,998.83,116.49Zm-23.94,10A12.4,12.4,0,0,0,987.14,139c6.79-.05,11.86-5.32,11.93-12.4S993.94,114,987.1,114A12.26,12.26,0,0,0,974.89,126.48Z"/><path class="cls-1" d="M1022.14,255.93a26.23,26.23,0,0,0,0-2.72c-.17-1.62.17-2.44,2.14-2.41s2,.85,1.94,2.29q-.08,13.25,0,26.47c0,1.47-.13,2.3-2,2.26-1.62,0-2.33-.44-2.11-2.13a25.88,25.88,0,0,0,0-2.88c-4.54,4.51-9.54,6.4-15.5,5.19a15.12,15.12,0,0,1-9.44-6.3,16.08,16.08,0,0,1,2.34-21.36C1006,248.49,1014.25,249,1022.14,255.93ZM998.2,266.24a12.41,12.41,0,0,0,12.18,12.6c6.81,0,11.91-5.26,12-12.33s-5.07-12.67-11.91-12.72A12.27,12.27,0,0,0,998.2,266.24Z"/><path class="cls-1" d="M833.89,207.23c-9.81,7.08-18.33,6.78-24.33-.65a16.06,16.06,0,0,1,1.65-22.07c6.46-6,15.3-5.47,22.53,1.53a21.7,21.7,0,0,0,.13-2.91c-.14-1.55.26-2.24,2-2.23s2.09.57,2.08,2.16c-.07,8.82-.05,17.65,0,26.47,0,1.3.19,2.41-1.83,2.39-1.8,0-2.49-.53-2.23-2.31A18.65,18.65,0,0,0,833.89,207.23Zm.25-10.75c0-7.16-5.17-12.61-12-12.6A12.27,12.27,0,0,0,810,196.16a12.43,12.43,0,0,0,12,12.77C828.9,209,834.1,203.68,834.14,196.48Z"/><path class="cls-1" d="M978.43,207.23c-9.82,7.08-18.33,6.78-24.34-.65a16.08,16.08,0,0,1,1.65-22.07c6.46-6,15.31-5.47,22.53,1.53a23.66,23.66,0,0,0,.14-2.91c-.14-1.55.26-2.24,2-2.23s2.08.57,2.07,2.16c-.07,8.82,0,17.65,0,26.47,0,1.3.18,2.41-1.84,2.39-1.8,0-2.48-.53-2.23-2.31A18.49,18.49,0,0,0,978.43,207.23Zm-23.94-10.94a12.41,12.41,0,0,0,12.15,12.64c6.8,0,11.92-5.23,12-12.29s-5-12.7-11.87-12.76A12.26,12.26,0,0,0,954.49,196.29Z"/><path class="cls-1" d="M880.52,325.76a23.87,23.87,0,0,0,0-2.7c-.22-1.73.33-2.33,2.2-2.34s1.87,1,1.87,2.35q0,13.1,0,26.18c0,1.45.1,2.51-2,2.5s-2.16-1-2-2.5c0-.65,0-1.31,0-2.57-4.32,4.37-9.07,6.26-14.71,5.4a15.05,15.05,0,0,1-9.74-5.82,16.07,16.07,0,0,1,1.47-21.66C864,318.42,872.12,318.76,880.52,325.76Zm.24,10.35c-.06-7.14-5.34-12.49-12.22-12.41a12.53,12.53,0,0,0,.25,25.05C875.7,348.72,880.82,343.32,880.76,336.11Z"/><path class="cls-1" d="M896.5,336.2c0-4.47.07-8.93,0-13.4-.05-1.76.67-2,2.22-2.06s1.88.69,1.87,2.08c0,7.48.1,15-.09,22.43-.06,2.53.76,3.08,3.11,3,4.17-.18,8.35-.14,12.52,0,1.83.06,2.29-.52,2.26-2.29-.09-7.57,0-15.15-.06-22.72,0-1.49,0-2.5,2.06-2.49s2,1.15,2,2.58c0,7.28.08,14.56-.07,21.84,0,2.3.36,3.42,3,3.1,1.14-.14,3.17-.7,3.41.5a21.24,21.24,0,0,1,0,7.2c-.14.86-1.73.36-2.65.35s-.9-.95-.8-1.55c.57-3.05-1.18-3.13-3.5-3.1-7.57.11-15.15,0-22.72.08-1.89,0-2.53-.47-2.47-2.4C896.59,344.94,896.5,340.57,896.5,336.2Z"/><path class="cls-1" d="M959.5,329.37c-7.88,7.8-15.11,15-22.79,22.59V340.7c0-6,0-12,0-18,0-1.62.63-1.91,2.06-1.91s2.07.29,2,1.91c-.1,5.72,0,11.45,0,17.17a5.72,5.72,0,0,0,.28,2.88c7.35-7.23,14.67-14.45,22.5-22.17v9.87c0,6.41,0,12.81,0,19.21,0,1.7-.58,2.08-2.18,2.11s-1.92-.62-1.91-2.05C959.53,343.2,959.5,336.71,959.5,329.37Z"/><path class="cls-1" d="M717.59,181.56c0,9.49,0,19,0,28.48,0,1.7-.79,1.78-2.12,1.85-1.57.07-2-.49-2-2,.07-6.49,0-13,0-19.8l-21.82,22.11-1-.63V200.92c0-5.82,0-11.64,0-17.46,0-1.39-.18-2.58,2-2.58s2.08,1,2.07,2.49c0,6.49,0,13,0,19.61L717,181.11Z"/><path class="cls-1" d="M814.92,320.84v18.94c0,3.2,0,6.4,0,9.6,0,1.39,0,2.34-1.91,2.36s-2.18-.79-2.16-2.4c.07-6.38,0-12.75,0-19.21l-21.6,21.62c-1.55-.71-1.17-1.49-1.18-2.08,0-8.83,0-17.66,0-26.48,0-1.53.06-2.47,2.1-2.48,2.21,0,2,1.23,2,2.59,0,5.53,0,11.06,0,16.59,0,.92-.28,1.91.4,2.95Z"/><path class="cls-1" d="M803.18,142.51a15.7,15.7,0,0,1-15.95-16.1,16,16,0,1,1,15.95,16.1Zm-11.91-16.08c0,7.22,5.1,12.6,12,12.59s11.91-5.35,12-12.36-5.31-12.69-12-12.69C796.63,114,791.29,119.54,791.27,126.43Z"/><path class="cls-1" d="M743.73,212.43a16,16,0,1,1,.24-32.05,16,16,0,0,1-.24,32.05Zm-11.91-15.9c0,7.05,5.13,12.37,11.89,12.4s12.06-5.37,12-12.55a12.27,12.27,0,0,0-12.21-12.5C737,184,731.8,189.6,731.82,196.53Z"/><path class="cls-1" d="M865.05,265.41c3.09,1.47,5,3.5,5.43,6.67.68,5.34-2,8.7-8.12,9.46-3.44.43-7,.14-10.45.23-1.2,0-1.46-.54-1.46-1.58,0-9.2,0-18.4,0-27.6,0-1.49.64-1.77,1.93-1.73,2.51.07,5,0,7.55,0,4.29.08,7.09,1.83,8.3,5.13C869.48,259.47,868.58,262.26,865.05,265.41Zm-10.62,7.41c0,5.52,0,5.52,5.46,5.44a14.16,14.16,0,0,0,1.46,0c3.2-.38,4.83-2.32,4.64-5.52s-2.36-4.89-6.28-4.93C854.43,267.73,854.43,267.73,854.43,272.82Zm0-13.73c0,5.19,0,5.19,3.38,5.19,4.75,0,6.76-1.45,6.74-4.83s-2-5.07-6.56-5.08C854.43,254.37,854.43,254.37,854.43,259.09Z"/><path class="cls-1" d="M983.53,266.25c0,4.37,0,8.74,0,13.11,0,1.55-.08,2.45-2.1,2.48-2.25,0-2-1.24-2-2.59,0-3.5-.06-7,0-10.49,0-1.57-.31-2.23-2.06-2.19-4.56.12-9.13.11-13.7,0-1.7,0-2.13.6-2.09,2.19.1,3.69,0,7.38.06,11.07,0,1.53-.45,2-2,2-1.36-.05-2.12-.18-2.1-1.87q.11-13.55,0-27.09c0-1.49.41-2,2-2s2.2.47,2.12,2.14c-.12,2.71,0,5.44,0,8.15,0,1.45.34,2.07,1.95,2q7-.15,14,0c1.63,0,2-.62,1.9-2-.09-2.62,0-5.25,0-7.87-.05-1.57.1-2.48,2.12-2.43s2,.9,1.95,2.34C983.49,257.51,983.53,261.88,983.53,266.25Z"/><path class="cls-1" d="M940.4,196.33c0,4.37,0,8.74,0,13.11,0,1.56-.09,2.46-2.11,2.49-2.24,0-2-1.24-1.94-2.59,0-3.5-.07-7,0-10.49,0-1.57-.31-2.24-2.06-2.19q-6.84.17-13.69,0c-1.71,0-2.13.6-2.09,2.19.09,3.69,0,7.38,0,11.07,0,1.53-.44,2-2,2-1.36,0-2.12-.19-2.11-1.87q.11-13.54,0-27.09c0-1.49.4-2,2-2s2.2.47,2.13,2.13c-.13,2.72,0,5.44-.06,8.16,0,1.45.34,2.07,1.95,2q7-.15,14,0c1.63,0,2-.61,1.9-2-.09-2.62.05-5.24,0-7.86-.05-1.58.1-2.48,2.12-2.43s2,.9,2,2.34C940.37,187.6,940.4,192,940.4,196.33Z"/><path class="cls-1" d="M770,196.36c0-4.47.08-8.94,0-13.4,0-1.79.71-2,2.23-2.05,1.69,0,1.9.73,1.86,2.1-.07,2.72,0,5.44,0,8.16,0,1.41.26,2.1,1.91,2.06,4.66-.1,9.33-.09,14,0,1.58,0,2-.53,1.93-2-.1-2.71.06-5.44-.06-8.15-.07-1.62.42-2.19,2.1-2.15,1.49,0,2,.45,2,2q-.09,13.54,0,27.09c0,1.66-.69,1.87-2.08,1.9s-2.05-.36-2-1.94c.11-3.69,0-7.38.06-11.07,0-1.53-.23-2.27-2-2.22-4.56.12-9.13.1-13.69,0-1.67,0-2.18.52-2.13,2.16.1,3.59,0,7.18.05,10.77,0,1.42,0,2.31-1.94,2.33S770,211,770,209.47C770.07,205.1,770,200.73,770,196.36Z"/><path class="cls-1" d="M776.64,336.3c0,4.37,0,8.74,0,13.11,0,1.44-.09,2.29-2,2.33-2,.06-2.15-.85-2.11-2.43.08-3.49-.06-7,.06-10.48.05-1.7-.29-2.42-2.21-2.35-4.46.14-8.93.13-13.4,0-1.86-.06-2.3.6-2.25,2.33.12,3.59,0,7.19.07,10.78.06,1.66-.47,2.15-2.13,2.14s-2-.54-2-2c.05-9,.07-18.06,0-27.09,0-1.68.75-1.81,2.11-1.87,1.55-.05,2,.45,2,2-.11,2.72,0,5.44-.06,8.15-.06,1.6.39,2.23,2.09,2.19,4.57-.1,9.14-.11,13.7,0,1.75.05,2.12-.62,2-2.19-.11-2.52,0-5.05,0-7.58,0-1.35-.29-2.62,1.95-2.58,2,0,2.13.93,2.1,2.48C776.59,327.56,776.64,331.93,776.64,336.3Z"/><path class="cls-1" d="M777.22,126.78c0,4.37-.08,8.74,0,13.11,0,1.73-.62,2.07-2.19,2.1s-1.93-.63-1.9-2.05c.07-3.69,0-7.38.06-11.07,0-1.67-.48-2.16-2.13-2.12-4.47.1-8.94.11-13.4,0-1.76,0-2.39.42-2.33,2.26.14,3.68,0,7.38.08,11.06,0,1.66-.65,1.89-2.06,1.9s-2-.34-2-1.93q.09-13.55,0-27.09c0-1.6.56-2,2-1.94s2.13.24,2.06,1.9c-.13,2.81,0,5.63-.07,8.45,0,1.55.54,2,2,2q7-.11,14,0c1.38,0,1.87-.41,1.83-1.82-.09-2.91,0-5.83-.05-8.73-.06-1.51.6-1.78,1.9-1.74s2.23,0,2.19,1.78C777.15,117.46,777.22,122.12,777.22,126.78Z"/><path class="cls-1" d="M946.23,266.23c0,4.46-.06,8.93,0,13.4,0,1.61-.39,2.17-2.09,2.19s-2-.77-2-2.26c.08-3.59,0-7.19.06-10.78,0-1.54-.26-2.26-2-2.21-4.56.12-9.13.11-13.69,0-1.68,0-2.16.54-2.12,2.16.1,3.59,0,7.19.05,10.78,0,1.43-.06,2.35-2,2.3-1.66,0-2.15-.51-2.13-2.16q.1-13.4,0-26.8c0-1.46.36-2,1.95-2s2.23.43,2.15,2.12c-.13,2.71,0,5.44-.06,8.15,0,1.42.29,2.09,1.93,2.06,4.66-.11,9.32-.1,14,0,1.6,0,2-.57,1.92-2-.1-2.33-.1-4.67,0-7,.06-1.38-1-3.39,2-3.32s1.86,2.16,1.9,3.48C946.32,258.26,946.23,262.25,946.23,266.23Z"/><path class="cls-1" d="M510.4,204.55c0,10.87,0,21.73,0,32.6,0,1.67-.1,2.69-2.27,2.62-1.91-.07-2.44-.59-2.43-2.5q.09-32.61,0-65.21c0-1.74.21-2.64,2.31-2.62s2.41.64,2.39,2.5C510.36,182.81,510.4,193.68,510.4,204.55Z"/><path class="cls-1" d="M963.61,111.29c-4.73,4.29-9.12,8.38-13.65,12.31-1.41,1.22-1.39,1.86-.08,3.12,5,4.83,9.88,9.78,15,14.93-3.53.75-6,.16-8.26-2.44-3-3.45-6.32-6.56-9.55-9.78-.57-.56-1-1.7-2-1.29s-.83,1.64-.84,2.58c0,3.1-.08,6.21,0,9.31.05,1.58-.52,2-2,1.95s-2-.34-2-1.94q.1-13.53,0-27.06c0-1.52.43-2,2-2,1.4,0,2.11.26,2,1.91-.12,3.43,0,6.87,0,11.24,4.22-3.89,7.91-7,11.2-10.44C957.7,111.32,960.13,110.56,963.61,111.29Z"/><path class="cls-1" d="M1011.45,141.62l8.92-13.62c-.39-.92-1.2-.65-1.77-.86-4-1.46-6.13-4.72-5.68-8.76a7.84,7.84,0,0,1,7.46-7.26c3.08-.24,6.2,0,9.31-.08,1.21,0,1.45.57,1.45,1.6,0,9.21,0,18.43,0,27.64,0,1.88-1.11,1.59-2.27,1.68-1.43.1-1.84-.47-1.81-1.84.08-3.29.06-6.59,0-9.89,0-.77.5-1.87-.75-2.2a2.17,2.17,0,0,0-2.66,1.14c-2.13,3.47-4.55,6.77-6.51,10.33C1015.83,141.93,1014.14,142.37,1011.45,141.62Zm15.71-22.38c-.51-1.72,1.66-5-3.07-4.77-5.46.33-7.4,1.42-7.33,5.23.06,3.46,1.9,4.75,6.81,4.75C1027.16,124.45,1027.16,124.45,1027.16,119.24Z"/><path class="cls-1" d="M1034.77,281.44l9.07-13.85c-1-.36-1.9-.61-2.73-1a7.92,7.92,0,0,1-4.85-8.7,7.84,7.84,0,0,1,7.42-7c3.09-.23,6.21,0,9.31-.08,1.21,0,1.47.56,1.46,1.6,0,9.21,0,18.43,0,27.64,0,1.88-1.11,1.59-2.28,1.68-1.42.11-1.84-.45-1.81-1.83.08-3.2.07-6.4,0-9.6,0-.85.59-2.06-.75-2.49s-2.13.24-2.82,1.37c-2.08,3.39-4.45,6.61-6.34,10.09C1039.15,281.75,1037.46,282.21,1034.77,281.44Zm15.7-22.05c0-5,0-5-3.26-5-5.28,0-7.16,1.34-7.14,5.06s1.87,4.85,7,4.85C1050.47,264.28,1050.47,264.28,1050.47,259.39Z"/><path class="cls-1" d="M991,211.58l9.05-13.84c-6-2.18-8.25-5.22-7.5-9.9.66-4.06,3.73-6.71,8.14-6.86,2.62-.09,5.24.07,7.86,0,1.59-.06,2.21.35,2.19,2.07q-.1,13.4,0,26.78c0,1.68-.53,2.11-2.15,2.12s-2-.58-1.94-2c.08-3.29.05-6.59,0-9.89,0-.77.42-1.86-.92-2.08a2.13,2.13,0,0,0-2.43,1.08c-2.08,3.39-4.44,6.61-6.34,10.09C995.67,211.52,994,212.36,991,211.58Zm15.73-22c-.07-5.92.61-5.08-3.14-5.13-5.34-.07-7.22,1.26-7.26,4.91s1.83,5,6.88,5C1006.76,194.37,1006.76,194.37,1006.76,189.61Z"/><path class="cls-1" d="M972.39,351.4l9.05-13.85c-5.9-2.1-8.15-5-7.55-9.61a7.9,7.9,0,0,1,7.9-7.11c3.29-.13,7.47-1.14,9.63.45s.58,6,.63,9.13c.12,6.3,0,12.61.07,18.91,0,1.62-.2,2.43-2.17,2.43s-1.93-1-1.91-2.36c.05-3.2,0-6.4,0-9.6,0-.77.41-1.86-.93-2.07a2.13,2.13,0,0,0-2.42,1.1c-2.08,3.38-4.45,6.6-6.34,10.09C977,351.36,975.34,352.19,972.39,351.4Zm15.72-22.54c-.74-1.41,1.89-4.95-3-4.65-5.5.33-7.43,1.38-7.39,5.17,0,3.54,1.9,4.81,7,4.81C988.11,334.19,988.11,334.19,988.11,328.86Z"/><path class="cls-1" d="M835.86,127.64c-4.26-1-7.13-3-7.69-7.24a8,8,0,0,1,7.77-9.31c2.89-.18,5.82,0,8.73-.07,1.51,0,1.74.66,1.74,1.92q-.06,13.55,0,27.07c0,1.54-.49,2-2,2-1.71,0-2.15-.57-2.09-2.17.1-3.2.06-6.41,0-9.61,0-.76.5-1.86-.77-2.19a2.19,2.19,0,0,0-2.65,1.17c-2.12,3.47-4.55,6.76-6.5,10.32-1.34,2.44-3,2.84-5.71,2.12Zm6.55-8.41c-.5-1.73,1.66-5-3.08-4.76-5.36.33-7.25,1.31-7.32,5s1.81,5,6.82,5C842.41,124.45,842.41,124.45,842.41,119.23Z"/><path class="cls-1" d="M726.68,142.56c-7-.12-12.6-2.95-15.61-9.52-2.69-5.89-1.77-11.69,2.43-16.6,5-5.84,11.55-7,18.77-5.23a13.3,13.3,0,0,1,7.37,4.37c.51.63,1.87,1.33.35,2.24-1,.57-1.82,1.83-3.17.28a12.54,12.54,0,0,0-9-4.12c-6.3-.39-11.64,3-13.48,8.45a12.65,12.65,0,0,0,4.85,14.37A14.18,14.18,0,0,0,736,135.71c.88-.74,1.44-2.42,3.27-1.07,1.3,1,1.71,1.5.44,2.81C736.1,141.08,731.69,142.4,726.68,142.56Z"/><path class="cls-1" d="M802.22,282.34c-11.78,0-19.15-7.45-18.45-17.17.68-9.41,9.85-16.27,19.72-14.72,3.8.6,7.38,1.77,10,4.8.5.58,2,1.21.68,2.24-.91.7-1.9,2.08-3.38.4a12.55,12.55,0,0,0-9-4.09c-6.06-.34-11.28,2.82-13.27,8a12.84,12.84,0,0,0,3.58,14A14,14,0,0,0,807.86,277a11.77,11.77,0,0,0,2.95-2.33c1.36-1.58,2.22-.21,3.16.37,1.5.94.18,1.65-.38,2.24A16.2,16.2,0,0,1,802.22,282.34Z"/><path class="cls-1" d="M915.5,142.56c-7-.12-12.61-3-15.61-9.54-2.69-5.89-1.75-11.69,2.44-16.59,5-5.84,11.56-7,18.78-5.22a12.85,12.85,0,0,1,6.75,3.76c.62.71,2.41,1.32,1.14,2.67-1.06,1.13-2.29,1.8-3.81.07-2.2-2.52-5.28-3.53-8.57-3.73-6.06-.37-11.28,2.78-13.3,7.91a12.85,12.85,0,0,0,3.53,14,14,14,0,0,0,15.79,1.24,12.11,12.11,0,0,0,3-2.31c1.49-1.71,2.46-.19,3.35.52,1.32,1.05-.2,1.67-.73,2.23C924.79,141.22,920.39,142.4,915.5,142.56Z"/><path class="cls-1" d="M884.32,196.45c0-4.45.06-8.91,0-13.36,0-1.57.35-2.19,2.07-2.19s1.85.8,1.81,2.13c-.06,2.52.15,5.05-.06,7.55-.2,2.29.69,2.78,2.78,2.67a33.51,33.51,0,0,1,6.64.37,9.09,9.09,0,0,1,.51,17.84c-4.11.87-8.3.22-12.45.38-1.6.06-1.25-1.14-1.26-2C884.31,205.36,884.32,200.91,884.32,196.45Zm4,6c0,6.51,0,6.51,6.42,5.84,4-.41,6.16-2.39,6.17-5.57,0-3.49-2.08-5.55-6.07-6C888.28,196,888.28,196,888.28,202.47Z"/><path class="cls-1" d="M839.18,334.49c4.93,3.62,6.27,8.07,3.84,12.72-3.09,5.89-14.26,6.92-18.5,1.76-.71-.87-.4-1.31.21-1.92s1.26-1.72,2.55-.56a9,9,0,0,0,7.29,2.21,5.59,5.59,0,0,0,5.25-6.14c-.12-3.16-2.24-5.21-5.63-5.44-1.15-.08-2.54.48-2.57-1.68,0-2,1.09-1.77,2.4-1.88,3.25-.27,5.2-2.4,5-5.25s-2.54-4.82-5.91-4.59a7.91,7.91,0,0,0-4.32,1.54c-1.48,1.13-2.27.37-3-.72-1.12-1.57.56-1.77,1.26-2.23a12,12,0,0,1,7.41-2.12c3.84.18,7.14,2.42,8.11,5.55C843.58,329.18,842.56,331.87,839.18,334.49Z"/><path class="cls-1" d="M846.51,211.57c4.72-10.36,9.36-20.52,14.31-31.39l14.3,31.33c-2.83,1-4.3.18-5.42-2.55-2.66-6.44-5.71-12.72-8.6-19.09-1.08.13-1,1.08-1.31,1.68-2.62,5.73-5.36,11.42-7.71,17.26C851,211.48,849.57,212.44,846.51,211.57Z"/><path class="cls-1" d="M356.86,124c0,7.46,0,14.92,0,22.38,0,1.69-.15,2.62-2.3,2.6s-2.26-.89-2.25-2.62q.09-22.4,0-44.77c0-1.72.08-2.63,2.24-2.63s2.32,1,2.31,2.66C356.82,109,356.85,116.49,356.86,124Z"/><path class="cls-1" d="M830.13,268c0-3.79-.1-7.58,0-11.36.06-1.82-.54-2.43-2.32-2.25-1.35.13-2.72-.06-4.08.05s-1.8-.54-1.78-1.87.43-1.68,1.68-1.67q8.45.07,16.9,0c1.38,0,1.57.63,1.57,1.77s-.19,1.92-1.57,1.76a14.2,14.2,0,0,0-1.46,0c-5.08,0-5.08,0-5.08,5q0,9.9,0,19.8c0,1.29.43,2.64-1.85,2.71-2.49.07-2-1.41-2-2.82C830.12,275.34,830.13,271.65,830.13,268Z"/><path class="cls-1" d="M666.94,196.23c0-4.36.06-8.73,0-13.09,0-1.55.3-2.27,2.06-2.21,3.87.12,7.76.09,11.64,0,1.43,0,1.78.47,1.81,1.83,0,1.52-.66,1.75-1.93,1.71-2.43-.07-4.86.12-7.28-.06-2-.15-2.42.64-2.4,2.47.09,7.47,0,14.94,0,22.41,0,1.34.3,2.62-1.93,2.62s-2-1.2-2-2.59C667,205,666.94,200.6,666.94,196.23Z"/><path class="cls-1" d="M685,336.24c0-4.37.1-8.73,0-13.1-.06-2,.62-2.45,2.48-2.39,3.68.13,7.37.07,11.06,0,1.19,0,2,.06,2,1.65s-.6,1.95-2,1.89c-2.42-.09-4.85.08-7.27-.06-1.8-.1-2.31.5-2.29,2.29.09,7.47,0,14.94,0,22.4,0,1.41.45,2.89-2,2.81-2.27-.08-1.85-1.42-1.86-2.71C685,344.78,685,340.51,685,336.24Z"/><path class="cls-1" d="M645,258.46a3.47,3.47,0,0,1-.29.25,2.41,2.41,0,0,1-.07-.53c0-.07.12-.14.18-.21Z"/></g></g></svg>