<?xml version="1.0" encoding="utf-8"?>
<!-- Generator: Adobe Illustrator 24.0.1, SVG Export Plug-In . SVG Version: 6.00 Build 0)  -->
<svg version="1.1" id="Слой_1" xmlns="http://www.w3.org/2000/svg" xmlns:xlink="http://www.w3.org/1999/xlink" x="0px" y="0px"
	 viewBox="0 0 612 792" style="enable-background:new 0 0 612 792;" xml:space="preserve">
<style type="text/css">
	.st0{display:none;fill:#0104FD;}
	.st1{fill:#000016;}
	.st2{fill:#B42736;}
	.st3{fill:#B42735;}
	.st4{fill:#B32736;}
	.st5{fill:#841E6E;}
	.st6{fill:#8B87A0;}
	.st7{fill:#B72730;}
	.st8{display:none;fill:#0206FC;}
	.st9{display:none;fill:#0004FC;}
	.st10{display:none;fill:#0004FB;}
	.st11{display:none;fill:#0004FA;}
	.st12{display:none;fill:#0207FC;}
	.st13{display:none;fill:#0004F6;}
	.st14{fill:#AC253F;}
	.st15{display:none;fill:#0004F5;}
	.st16{display:none;fill:#8A86A0;}
	.st17{display:none;fill:#8B87A0;}
	.st18{display:none;fill:#8985A1;}
	.st19{display:none;fill:#0505F7;}
	.st20{display:none;fill:#867894;}
	.st21{display:none;fill:#0003E1;}
	.st22{fill:#8C87A0;}
	.st23{fill:#00001A;}
	.st24{fill:#00001E;}
	.st25{display:none;fill:#0305FB;}
	.st26{display:none;fill:#0206FD;}
</style>
<g>
	<path class="st0" d="M529,416c0,66.59,0,133.18,0,200c-79,0-158,0-237,0c1.31-0.72,2.54-1.78,3.94-2.1
		c15.9-3.65,31.83-7.2,47.76-10.74c18.37-4.08,36.73-8.19,55.12-12.16c3.63-0.78,5.51-1.83,4.59-6.28
		c-1.24-6.01-1.53-12.22-2.2-18.35c-0.76-6.88-1.49-13.75-2.2-20.35c15.02,2.93,29.54,5.82,44.09,8.56
		c10.23,1.93,20.5,2.62,30.69-0.34c7.56-2.2,10.95-6.12,11.34-13.9c0.21-4.13-0.2-8.32-0.63-12.45
		c-3.47-33.25-11.52-65.58-20.22-97.74c-3.25-12-7.48-23.79-12.14-35.32c-3.73-9.24-11.08-14.76-21.35-15.89
		c-4.8-0.53-9.57-1.3-14.33-2.1c-11.65-1.95-23.34-3.72-34.88-6.2c-2.53-0.55-5.82-3.39-6.48-5.8c-2.37-8.56,0.19-16.86,2.44-25.2
		c2.98,2.11,5.3,4.03,7.89,5.45c1.06,0.58,2.72,0.07,4.1,0.06c-0.05-1.24,0.17-2.57-0.2-3.72c-1.41-4.42-3.01-8.78-4.54-13.16
		c4.27-0.42,6.73-2.53,6.57-7.06c3.33-2.11,7.31-3.64,9.86-6.45c8.59-9.46,14.95-20.3,18.23-32.82
		c5.37-20.48-2.05-43.33-19.23-53.74c-30.37-18.4-61.54-19.62-92.58-1.19c-8.71,5.17-14.55,12.86-18.1,22.48
		c-3.31,8.98-3.74,18.17-3.43,27.52c-2.66,0.09-5.33,0.07-7.99,0.28c-52.26,4.28-104.51,8.59-156.77,12.89
		c-7.29,0.6-7.3,0.6-7.16,7.98c0.97,49.94,1.95,99.89,2.92,149.83c0.04,1.94,0,3.88,0,6.12c-3.91,0.39-7.19,0.86-10.5,1
		c-3.82,0.16-5.81,1.51-5.45,5.76c0.34,3.97,0.28,8,0.02,11.98c-0.3,4.49,0.92,6.03,5.89,5.65c46.3-3.61,92.63-6.93,138.95-10.34
		c-0.85,3.89-1.83,7.76-2.52,11.69c-2.19,12.41-5.28,24.78-6.11,37.29c-0.84,12.62,11.53,20.41,23.42,16.17
		c5.92-2.11,10.5-5.65,13.2-11.44c0.56-1.2,1.33-2.3,2.62-4.48c3.21,25.44,6.18,49.55,9.33,73.62c1.1,8.36,2.67,16.66,4.03,24.99
		c-68.59,0-137.18,0-206,0c0-79,0-158,0-237c1.57,0.25,3.14,0.5,5.07,0.81c2.26-27.61,9.35-53.58,21.36-78.51
		c-2-0.5-3.37-0.83-4.65-1.15c-7.42,12.92-15.95,39.5-18.82,57.97C86.14,363.44,85,368.71,84,374c0-66.25,0-132.5,0-199
		c67,0,134,0,201,0c-1.33,0.42-2.64,1.08-4.01,1.24c-37.06,4.38-71.11,16.84-101.84,38.09c-23.68,16.38-43.45,36.62-59.51,60.76
		c0.65,0.76,1.12,1.43,1.7,1.96c0.55,0.51,1.23,0.88,1.92,1.37c32.3-47.9,76.21-78.88,131.98-92.53
		c55.87-13.67,108.91-5.1,159.64,22.16c-0.27-4.18-1.72-6.65-5.34-8.48c-19.3-9.73-39.48-16.79-60.74-20.71
		c-7.26-1.34-14.54-2.57-21.81-3.86c67.33,0,134.67,0,202,0c0,66.67,0,133.33,0,200c-0.35-1.21-0.87-2.39-1.01-3.62
		c-5.71-50.07-26.15-93.15-61.24-129.3c-3.38-3.48-3.42-3.44-7.56-2.48c76.51,85.85,86.77,178.3,27.65,278.35
		c0.71,0.38,1.96,1.04,3.38,1.8c17.3-24.95,28.84-51.98,34.73-81.41C526.43,430.92,527.65,423.45,529,416z M102.55,483.76
		c18.26,40.19,45.74,71.98,82.37,95.81c30.05,19.55,63.03,30.89,98.74,34.42c0.35-4.04-1.54-4.83-4.67-5.3
		c-72.18-10.91-127.31-47.12-163.76-110.84c-2.88-5.03-5.33-10.31-8.08-15.68C105.66,482.68,104.32,483.14,102.55,483.76z"/>
	<path class="st1" d="M286.11,276.99c-0.31-9.35,0.12-18.54,3.43-27.52c3.55-9.62,9.39-17.31,18.1-22.48
		c31.04-18.43,62.21-17.21,92.58,1.19c17.18,10.41,24.6,33.26,19.23,53.74c-3.28,12.52-9.64,23.36-18.23,32.82
		c-2.56,2.81-6.54,4.34-9.86,6.45c-0.59-0.87-1.17-1.74-1.76-2.61c5.49-1.71,9.71-5.12,12.75-9.91c3.65-5.75,7.62-11.38,10.53-17.51
		c11.04-23.29,4.5-55.01-26.48-66.98c-25.42-9.83-49.66-9.55-73.67,3.37c-17.79,9.58-28.14,33.47-22.67,50.15
		c3.75-1.59,7.41-3.93,11.38-4.68c12.74-2.42,23.98-7.73,34.21-15.57c4.48-3.44,9.28-6.49,14.07-9.5c1.1-0.69,3.56-1.13,3.99-0.59
		c0.85,1.09,1.12,3,0.9,4.46c-0.34,2.28-1.28,4.48-1.97,6.71c0.4,0.2,0.81,0.41,1.21,0.61c2.78-3.87,5.55-7.74,9.13-12.72
		c0.59,3.09,1.26,4.92,1.24,6.74c-0.16,13.22,6.34,23.55,14.4,33.14c0.88,1.04,3.31,1.91,4.4,1.44c4.02-1.76,7.92-2.44,11.05,1.02
		c3.31,3.65,3.56,8.04,1.36,12.57c-2.62,5.39-5.08,10.84-7.62,16.27c-1.23-0.02-2.46-0.03-3.69-0.05
		c2.95-6.15,6.29-12.16,8.63-18.53c0.85-2.32,0.09-6.08-1.4-8.1c-0.84-1.15-4.89-0.73-7.07,0.09c-2.96,1.12-5.16,0.99-7.08-1.43
		c-7.37-9.28-14.88-18.5-15.59-31.13c-0.04-0.7-0.46-1.38-0.78-2.28c-2.76,2.51-5.1,4.86-7.7,6.89c-0.87,0.68-2.75,1.06-3.53,0.57
		c-0.72-0.45-0.99-2.34-0.76-3.46c0.62-2.94,1.62-5.81,2.76-9.73c-2.09,1.25-3.12,1.76-4.05,2.43
		c-14.33,10.32-28.46,21.02-46.77,23.51c-1.01,0.14-2.5,2.23-2.52,3.43c-0.18,15.46-0.97,30.99,0.12,46.38
		c0.87,12.35,5.84,23.91,13.14,34.1c5.43,7.57,10.59,9.36,19.03,6.07c6.78-2.64,13.1-6.43,19.66-9.66c1.38-0.68,2.88-1.14,5.47-2.14
		c-1.53,2.9-3.16,4.51-3.01,5.93c0.79,7.66-1.71,13.07-9.84,15.06c6.64,19.94,13.06,39.24,19.48,58.54
		c0.37,0.03,0.74,0.05,1.11,0.08c7.18-19.54,14.35-39.08,21.52-58.6c-13.2-5.65-15.21-8.79-13.63-21.28
		c0.5-3.93,1.22-7.83,1.9-12.12c-2.14,1.17-3.85,2.1-6.81,3.72c5.36-8.05,9.82-14.76,14.29-21.47c1.36,1.28,2.73,2.55,4.09,3.83
		c1.53,4.38,3.13,8.74,4.54,13.16c0.37,1.14,0.15,2.47,0.2,3.72c-1.38,0.01-3.04,0.52-4.1-0.06c-2.59-1.42-4.91-3.34-7.89-5.45
		c-2.25,8.35-4.8,16.65-2.44,25.2c0.67,2.41,3.95,5.26,6.48,5.8c11.54,2.48,23.23,4.25,34.88,6.2c4.76,0.8,9.54,1.57,14.33,2.1
		c10.27,1.13,17.61,6.65,21.35,15.89c4.66,11.53,8.9,23.32,12.14,35.32c8.7,32.15,16.75,64.49,20.22,97.74
		c0.43,4.13,0.84,8.32,0.63,12.45c-0.39,7.79-3.78,11.71-11.34,13.9c-10.19,2.96-20.46,2.26-30.69,0.34
		c-14.55-2.74-29.06-5.63-44.09-8.56c0.71,6.6,1.44,13.48,2.2,20.35c0.67,6.13,0.96,12.34,2.2,18.35c0.92,4.45-0.96,5.5-4.59,6.28
		c-18.39,3.97-36.76,8.07-55.12,12.16c-15.93,3.54-31.86,7.09-47.76,10.74c-1.4,0.32-2.63,1.38-3.94,2.1c-0.67,0-1.33,0-2,0
		c-1.36-8.33-2.93-16.63-4.03-24.99c-3.16-24.08-6.12-48.18-9.33-73.62c-1.29,2.18-2.06,3.28-2.62,4.48
		c-2.71,5.79-7.28,9.33-13.2,11.44c-11.89,4.24-24.26-3.55-23.42-16.17c0.83-12.51,3.92-24.88,6.11-37.29
		c0.69-3.92,1.67-7.79,2.52-11.69c0.27-1.04,0.54-2.09,0.81-3.13c1.56-5.95,3.11-11.89,4.67-17.84c0.22-1.04,0.45-2.07,0.67-3.11
		c0.32-0.93,0.65-1.85,0.95-2.79c3.86-12.19,7.5-24.46,11.65-36.56c3.24-9.43,10.08-15.04,20.05-16.61
		c-0.71,1.33-1.42,2.66-2.13,3.99c-6.05,0.98-10.5,4.25-13,9.77c-2.74,6.05-5.83,12.08-7.5,18.44
		c-7.16,27.19-13.99,54.48-20.61,81.81c-1.23,5.1-1.42,10.59-1.23,15.86c0.27,7.31,7.64,14.15,13.97,13.75
		c11.42-0.72,22.24-14.03,20.85-25.6c-0.91-7.55-1.76-15.11-2.65-22.72c8.83-2.41,17.03-4.53,25.16-6.91
		c9.73-2.85,14.41-15.54,8.85-23.9c-0.76-1.15-2.15-2.12-3.46-2.63c-10.22-3.97-23.11,0.91-28.07,10.69
		c-6.47,12.76-12.78,25.61-19.2,38.39c-0.74,1.47-1.77,2.78-2.67,4.17c-0.5-0.21-1-0.43-1.5-0.64c0.5-1.72,0.76-3.55,1.54-5.13
		c6.18-12.54,12.66-24.93,18.64-37.56c3.39-7.17,8.4-11.84,16.2-13.42c1-0.19,2-0.38,3-0.57c3.22-0.03,6.44-0.05,9.67-0.08
		c1.05,0.28,2.1,0.57,3.15,0.85c4.68,1.62,7,5.25,7.2,9.86c0.23,5.42-0.28,10.88-0.47,16.34c0.35-0.08,1.47-0.3,2.57-0.6
		c23.61-6.43,47.25-12.8,70.82-19.38c4.41-1.23,5.9-0.21,6.31,4.4c1.65,18.75,3.7,37.46,5.43,56.21c0.27,2.92,1.32,4.63,4.09,5.42
		c13.86,3.98,28.01,6.14,42.41,5.58c7.69-0.3,10.99-5.12,9.22-12.58c-5.03-21.22-10.27-42.39-15.37-63.6
		c-0.4-1.67-0.37-3.44-0.53-5.17c0.53-0.12,1.06-0.24,1.59-0.36c0.57,1.26,1.37,2.46,1.69,3.78c5.26,21.51,10.21,43.1,15.79,64.52
		c2.6,9.98-4.74,16.57-12.67,16.62c-5.15,0.03-10.37,0.02-15.45-0.72c-9.04-1.32-18.14-2.68-26.95-5.03
		c-7.92-2.11-10.29-6.17-10.59-14.34c-0.05-1.5-0.03-3-0.06-4.5c-0.12-6.64-2.88-8.86-9.45-7.76c-5,0.84-8.04,3.67-9.28,8.55
		c-2.4,9.44-0.44,17.77,6.13,25.04c5.44,6.02,12.28,9.89,19.94,11.82c15,3.76,30.04,7.57,45.27,10.1c9.38,1.56,19.21,1.5,28.74,0.83
		c8.85-0.62,11.72-4.8,11.71-13.65c0-3.16-0.22-6.33-0.53-9.47c-3.19-31.94-10.86-63-19.15-93.88
		c-3.48-12.97-7.96-25.72-12.78-38.27c-3.25-8.48-9.98-13.5-19.38-14.46c-4.3-0.44-8.61-1.05-12.83-1.96
		c-3.92-0.85-6.32,0.36-8.75,3.6c-13.7,18.26-27.64,36.33-41.52,54.45c-4.17,5.44-4.23,5.42-8.32-0.3
		c-10.86-15.17-21.69-30.36-32.55-45.54c-7.22-10.1-7.23-10.09-19.49-6.1c-0.94-0.82-1.88-1.64-2.83-2.46
		c3.25-0.95,6.49-1.91,9.74-2.86c10.04-2.94,20.15-5.65,30.08-8.92c5.58-1.84,6.43-4.15,5.1-10.18c-4.36,2.11-8.65,4.21-12.96,6.25
		c-9.97,4.72-18.99,4.23-26.42-4.88c-0.72-0.97-1.43-1.94-2.15-2.91c-2.75-5.84-5.5-11.68-8.25-17.52c-0.35-1-0.7-2.01-1.05-3.01
		c-1.18-5.87-2.36-11.73-3.53-17.6c-0.11-1.03-0.22-2.06-0.33-3.09c-0.06-6.18-0.11-12.37-0.17-18.55c0.01-1.03,0.03-2.07,0.04-3.1
		c0.38-5.6,0.76-11.2,1.13-16.8c-0.36-0.05-0.73-0.1-1.09-0.15c-0.9,3.23-1.79,6.46-2.69,9.69c-0.57-0.01-1.14-0.02-1.71-0.02
		c-0.93-3.39-1.85-6.79-2.78-10.18C286.53,278.88,286.32,277.94,286.11,276.99z M370.27,428.27c12.54-16.22,25.08-32.44,38.1-49.27
		c-7.43-1.11-13.78-2.06-20.3-3.04c-6.34,17.45-12.52,34.49-18.7,51.52c-0.03,0.39-0.07,0.78-0.1,1.16
		C369.6,428.52,369.94,428.4,370.27,428.27z M291.68,611.53c36.55-8.12,72.39-16.09,108.75-24.17c-1.37-12.08-3.02-23.77-3.88-35.51
		c-0.41-5.65-2.32-8.49-7.77-10.79c-5.63-2.38-10.88-6.45-15.26-10.82c-7.27-7.23-9-16.46-6.57-26.38
		c2.29-9.37,10.17-13.78,19.48-11.03c1.18,0.35,2.36,0.71,4.18,1.26c-1.28-13.09-2.49-25.58-3.77-38.62
		c-6.67,1.8-12.76,3.42-18.83,5.09c-10.42,2.87-10.41,2.88-10.12,13.75c0.01,0.33,0.17,0.76,0.02,0.98c-1.07,1.57-1.92,4.1-3.35,4.5
		c-14.9,4.19-29.9,8-44.85,11.99c-2.77,0.74-4.08-0.16-4.36-2.97c-0.34-3.45-0.8-6.88-1.26-10.78c-9.58,2.61-18.67,5.09-28.27,7.71
		C281.1,527.56,286.34,569.11,291.68,611.53z M308.64,488.79c12.88-3.39,24.89-6.56,36.91-9.71c10.46-2.75,10.46-2.74,8.32-13.59
		c-0.03-0.15-0.17-0.28-0.58-0.92c-15.23,4.17-30.64,8.39-46.07,12.61C307.72,481.31,308.14,484.71,308.64,488.79z M355.12,427.5
		c0.49-0.2,0.99-0.39,1.48-0.59c-5.52-16.62-11.04-33.24-16.63-50.07c-5.95,1.81-11.4,3.47-17.28,5.26
		C333.75,397.58,344.44,412.54,355.12,427.5z M381.67,330.21c-3.75,4.39-2.87,7.18,3.8,10.7
		C384.08,337.01,382.89,333.66,381.67,330.21z M356.78,428.44c-0.09-0.1-0.18-0.21-0.27-0.31c-0.1,0.1-0.2,0.19-0.3,0.29
		c0.14,0.11,0.28,0.21,0.42,0.32C356.68,428.63,356.73,428.54,356.78,428.44z"/>
	<path class="st2" d="M327,175c7.27,1.28,14.55,2.52,21.81,3.86c21.26,3.92,41.43,10.98,60.74,20.71c3.63,1.83,5.07,4.31,5.34,8.48
		c-50.73-27.26-103.77-35.83-159.64-22.16c-55.78,13.65-99.69,44.63-131.98,92.53c-0.69-0.48-1.37-0.86-1.92-1.37
		c-0.58-0.54-1.05-1.2-1.7-1.96c16.06-24.14,35.83-44.38,59.51-60.76c30.73-21.26,64.78-33.71,101.84-38.09
		c1.37-0.16,2.67-0.82,4.01-1.24c2.33,0,4.67,0,7,0c1.67,0,3.33,0,5,0C307,175,317,175,327,175z"/>
	<path class="st3" d="M529,416c-1.35,7.45-2.57,14.92-4.06,22.34c-5.89,29.43-17.43,56.46-34.73,81.41
		c-1.42-0.76-2.66-1.42-3.38-1.8c59.13-100.04,48.87-192.49-27.65-278.35c4.13-0.96,4.18-1,7.56,2.48
		c35.09,36.14,55.53,79.23,61.24,129.3c0.14,1.23,0.67,2.42,1.01,3.62C529,388.67,529,402.33,529,416z"/>
	<path class="st4" d="M84,374c1-5.29,2.14-10.56,2.97-15.88c2.86-18.47,11.4-45.05,18.82-57.97c1.28,0.32,2.65,0.66,4.65,1.15
		c-12.01,24.93-19.09,50.9-21.36,78.51c-1.93-0.31-3.5-0.56-5.07-0.81C84,377.33,84,375.67,84,374z"/>
	<path class="st5" d="M297,175c-1.67,0-3.33,0-5,0C293.67,175,295.33,175,297,175z"/>
	<path class="st6" d="M252.18,444.07c-0.22,1.04-0.45,2.07-0.67,3.11c-30.72,2.28-61.45,4.52-92.16,6.85
		c-16.94,1.29-33.86,2.67-50.78,4.21c-1.51,0.14-4.01,1.68-4.12,2.77c-0.46,4.57-0.2,9.21-0.2,14.01c2.62,0,4.6,0.12,6.57-0.02
		c20.6-1.5,41.19-3.07,61.78-4.58c24.75-1.82,49.49-3.6,74.24-5.4c-0.27,1.04-0.54,2.09-0.81,3.13
		c-46.32,3.4-92.65,6.73-138.95,10.34c-4.97,0.39-6.2-1.16-5.89-5.65c0.27-3.98,0.32-8.01-0.02-11.98c-0.36-4.26,1.63-5.6,5.45-5.76
		c3.3-0.14,6.59-0.61,10.5-1c0-2.24,0.03-4.18,0-6.12c-0.97-49.94-1.95-99.89-2.92-149.83c-0.14-7.38-0.13-7.38,7.16-7.98
		c52.26-4.3,104.51-8.61,156.77-12.89c2.65-0.22,5.32-0.2,7.99-0.28c0.21,0.94,0.42,1.89,0.63,2.83
		c-56.38,4.62-112.77,9.24-169.41,13.88c1.05,53.76,2.08,106.75,3.12,160.03c20.26-1.51,39.35-2.95,58.45-4.35
		C203.33,447.6,227.76,445.84,252.18,444.07z"/>
	<path class="st2" d="M102.55,483.76c1.77-0.62,3.11-1.08,4.6-1.6c2.76,5.37,5.2,10.65,8.08,15.68
		c36.45,63.72,91.57,99.93,163.76,110.84c3.13,0.47,5.02,1.26,4.67,5.3c-35.71-3.53-68.69-14.87-98.74-34.42
		C148.29,555.74,120.81,523.95,102.55,483.76z"/>
	<path class="st7" d="M384.78,328.27c-1.36-1.28-2.73-2.55-4.1-3.83c-0.69-3.2,0.29-5.57,3.43-6.86c1.23,0.02,2.46,0.03,3.69,0.05
		c0.6,0.32,1.19,0.64,1.79,0.96c0.59,0.87,1.17,1.74,1.76,2.61C391.51,325.74,389.05,327.85,384.78,328.27z"/>
	<path class="st8" d="M252.18,444.07c-24.42,1.77-48.85,3.53-73.27,5.32c-19.1,1.4-38.2,2.84-58.45,4.35
		c-1.04-53.28-2.07-106.26-3.12-160.03c56.64-4.64,113.02-9.26,169.41-13.88c0.93,3.39,1.85,6.79,2.78,10.18
		c0.57,0.01,1.14,0.02,1.71,0.02c0.9-3.23,1.79-6.46,2.69-9.69c0.36,0.05,0.73,0.1,1.09,0.15c-0.38,5.6-0.76,11.2-1.13,16.8
		c-16.9,1.49-33.91,1.93-50.72,4.28c0.06,0.85,0.13,1.7,0.19,2.55c16.83-1.24,33.65-2.49,50.48-3.73
		c0.06,6.18,0.11,12.37,0.17,18.55c-15.51,1.5-31.12,2.17-46.54,4.34c0.09,0.9,0.18,1.8,0.26,2.69c15.53-1.31,31.07-2.62,46.6-3.94
		c1.18,5.87,2.36,11.73,3.53,17.6c-14.6,1.14-29.21,2.24-43.8,3.46c-1.42,0.12-2.78,0.95-4.17,1.46c0.16,0.62,0.32,1.23,0.48,1.85
		c16.18-1.25,32.36-2.51,48.54-3.76c2.75,5.84,5.5,11.68,8.25,17.52c-16.74,1.5-33.48,2.97-50.22,4.52
		c-1.56,0.14-3.06,0.81-4.59,1.23c0.11,0.74,0.23,1.48,0.34,2.22c18.87-1.69,37.74-3.37,56.62-5.06c7.42,9.11,16.45,9.6,26.42,4.88
		c4.31-2.04,8.6-4.14,12.96-6.25c1.34,6.03,0.49,8.35-5.1,10.18c-9.93,3.27-20.04,5.98-30.08,8.92c-8.18,0.69-16.36,1.38-24.54,2.08
		c-11.15,1.22-22.31,2.44-33.46,3.66c0.07,0.95,0.15,1.9,0.22,2.86c3.07-0.26,6.15-0.52,9.22-0.77c6.71-0.54,13.42-1.06,20.13-1.59
		c-0.09,0.36-0.18,0.71-0.28,1.07c-9.97,1.57-16.81,7.18-20.05,16.61c-4.15,12.09-7.79,24.36-11.65,36.56
		C252.84,442.21,252.5,443.14,252.18,444.07z M202.56,425.86c-0.14-3.12-0.28-5.58-0.35-8.05c-0.81-26.64-1.68-53.27-2.36-79.91
		c-0.11-4.34-1.43-5.98-5.98-5.27c-5.25,0.82-10.61,1.31-15.92,1.31c-4.87,0-6.17,1.91-6.02,6.61c0.87,27.3,1.47,54.61,2.16,81.92
		c0.04,1.76,0.01,3.53,0.01,5.49c-3.72,0.26-6.79,0.48-10.97,0.77c0-6.83,0.11-13.13-0.02-19.42c-0.64-30.81-1.43-61.61-1.94-92.42
		c-0.07-4.32-1.47-5.51-5.57-4.99c-6.11,0.77-12.26,1.41-18.4,1.61c-4.24,0.14-5.01,1.86-4.93,5.82
		c0.73,35.47,1.22,70.95,1.77,106.43c0.03,1.74,0,3.49,0,5.09c-3.88,0.69-6.98,1.23-10.07,1.78c0.02,0.57,0.04,1.14,0.06,1.71
		c1.59,0.16,3.19,0.56,4.76,0.46c7.97-0.54,15.94-1.22,23.91-1.83c27.39-2.1,54.78-4.25,82.18-6.21c4.12-0.29,5.31-1.9,5.1-5.91
		c-1.12-21.29-2.08-42.59-2.96-63.89c-0.14-3.25-1.33-4.49-4.58-4.15c-6.13,0.64-12.26,1.28-18.41,1.58
		c-3.98,0.2-5.44,1.64-5.16,5.81c0.78,11.63,1.16,23.29,1.69,34.93c0.45,9.91,0.89,19.83,1.34,29.97
		C208.63,425.38,206.01,425.59,202.56,425.86z"/>
	<path class="st9" d="M306.61,386.13c12.26-3.99,12.27-3.99,19.49,6.1c10.85,15.18,21.69,30.37,32.55,45.54
		c4.09,5.72,4.15,5.74,8.32,0.3c13.89-18.12,27.82-36.19,41.52-54.45c2.43-3.24,4.83-4.45,8.75-3.6c4.22,0.92,8.53,1.53,12.83,1.96
		c9.4,0.95,16.13,5.98,19.38,14.46c4.81,12.55,9.29,25.3,12.78,38.27c8.29,30.88,15.95,61.94,19.15,93.88
		c0.31,3.14,0.53,6.31,0.53,9.47c0.01,8.85-2.87,13.03-11.71,13.65c-9.53,0.67-19.36,0.72-28.74-0.83
		c-15.23-2.53-30.27-6.34-45.27-10.1c-7.66-1.92-14.5-5.8-19.94-11.82c-6.58-7.27-8.54-15.6-6.13-25.04
		c1.24-4.88,4.28-7.72,9.28-8.55c6.57-1.1,9.33,1.12,9.45,7.76c0.03,1.5,0,3,0.06,4.5c0.3,8.17,2.67,12.23,10.59,14.34
		c8.81,2.35,17.91,3.7,26.95,5.03c5.08,0.74,10.3,0.75,15.45,0.72c7.93-0.05,15.27-6.64,12.67-16.62
		c-5.58-21.42-10.53-43.01-15.79-64.52c-0.32-1.32-1.12-2.52-1.69-3.78c-0.53,0.12-1.06,0.24-1.59,0.36
		c0.17,1.73,0.13,3.5,0.53,5.17c5.1,21.2,10.35,42.38,15.37,63.6c1.77,7.45-1.54,12.28-9.22,12.58c-14.4,0.56-28.55-1.6-42.41-5.58
		c-2.76-0.79-3.82-2.5-4.09-5.42c-1.73-18.74-3.78-37.46-5.43-56.21c-0.41-4.61-1.89-5.63-6.31-4.4
		c-23.57,6.58-47.21,12.95-70.82,19.38c-1.1,0.3-2.22,0.52-2.57,0.6c0.19-5.47,0.7-10.92,0.47-16.34c-0.2-4.61-2.52-8.24-7.2-9.86
		c0-0.67,0-1.33-0.01-2c-0.12-8.85-3.16-18.26,5.06-25.49c0.56-0.49,0.69-1.5,0.93-2.29C313.04,406.2,312.42,395.89,306.61,386.13z"
		/>
	<path class="st9" d="M291.68,611.53c-5.35-42.42-10.59-83.97-15.86-125.77c9.6-2.62,18.69-5.1,28.27-7.71
		c0.46,3.9,0.92,7.33,1.26,10.78c0.28,2.81,1.59,3.71,4.36,2.97c14.95-3.99,29.96-7.8,44.85-11.99c1.43-0.4,2.28-2.93,3.35-4.5
		c0.15-0.22-0.01-0.65-0.02-0.98c-0.29-10.87-0.3-10.88,10.12-13.75c6.07-1.67,12.15-3.29,18.83-5.09
		c1.27,13.04,2.49,25.53,3.77,38.62c-1.82-0.55-2.99-0.91-4.18-1.26c-9.32-2.75-17.19,1.66-19.48,11.03
		c-2.43,9.92-0.7,19.15,6.57,26.38c4.39,4.36,9.63,8.44,15.26,10.82c5.45,2.3,7.36,5.14,7.77,10.79
		c0.85,11.74,2.51,23.42,3.88,35.51C364.07,595.44,328.23,603.41,291.68,611.53z"/>
	<path class="st10" d="M384.11,317.57c-3.13,1.29-4.11,3.66-3.43,6.86c-4.46,6.71-8.93,13.42-14.29,21.47
		c2.96-1.62,4.68-2.55,6.81-3.72c-0.68,4.28-1.4,8.19-1.9,12.12c-1.57,12.49,0.43,15.63,13.63,21.28
		c-7.17,19.52-14.35,39.06-21.52,58.6c-0.37-0.03-0.74-0.05-1.11-0.08c-6.42-19.3-12.85-38.6-19.48-58.54
		c8.13-1.99,10.63-7.4,9.84-15.06c-0.15-1.43,1.48-3.03,3.01-5.93c-2.59,1-4.09,1.46-5.47,2.14c-6.55,3.23-12.88,7.02-19.66,9.66
		c-8.44,3.29-13.6,1.5-19.03-6.07c-7.3-10.19-12.27-21.74-13.14-34.1c-1.09-15.39-0.3-30.91-0.12-46.38c0.01-1.2,1.5-3.29,2.52-3.43
		c18.31-2.49,32.44-13.19,46.77-23.51c0.93-0.67,1.96-1.18,4.05-2.43c-1.15,3.92-2.14,6.79-2.76,9.73c-0.23,1.11,0.04,3,0.76,3.46
		c0.78,0.49,2.66,0.11,3.53-0.57c2.6-2.02,4.94-4.38,7.7-6.89c0.32,0.9,0.74,1.58,0.78,2.28c0.71,12.63,8.22,21.85,15.59,31.13
		c1.92,2.42,4.12,2.55,7.08,1.43c2.18-0.82,6.23-1.24,7.07-0.09c1.49,2.03,2.25,5.78,1.4,8.1
		C390.4,305.42,387.06,311.42,384.11,317.57z M334.95,301.72c-0.66-0.18-1.32-0.37-1.98-0.55c-3.45,6.82-6.34,13.84-5.84,21.81
		c0.05,0.82,1.26,1.92,2.17,2.28c3.28,1.31,12.99-2.24,16.29-6.61c-5.73,1.47-10.42,2.68-16.6,4.27
		C331.23,314.93,333.09,308.32,334.95,301.72z M364.33,292.61c0.57-0.64,1.13-1.27,1.7-1.91c-1.52-2.08-2.63-4.76-4.64-6.12
		c-3.98-2.69-8.44-2.65-12.63,0.02c-4.43,2.83-5.55,4.56-4.91,8.24C350.47,286.47,357.21,280.93,364.33,292.61z M307.66,292.54
		c3.61-2.1,7.14-5.65,10.87-5.88c3.44-0.21,7.11,3.14,10.6,4.89c0.03-5.12-4.29-8.61-10.61-8.36
		C313.02,283.41,307.23,288.41,307.66,292.54z"/>
	<path class="st10" d="M389.59,318.59c-0.6-0.32-1.19-0.64-1.79-0.96c2.53-5.43,5-10.88,7.62-16.27c2.2-4.53,1.95-8.92-1.36-12.57
		c-3.13-3.46-7.03-2.77-11.05-1.02c-1.09,0.48-3.52-0.4-4.4-1.44c-8.06-9.59-14.56-19.92-14.4-33.14c0.02-1.82-0.65-3.65-1.24-6.74
		c-3.57,4.98-6.35,8.85-9.13,12.72c-0.4-0.2-0.81-0.41-1.21-0.61c0.69-2.23,1.63-4.43,1.97-6.71c0.22-1.46-0.05-3.37-0.9-4.46
		c-0.43-0.55-2.89-0.11-3.99,0.59c-4.79,3.01-9.59,6.06-14.07,9.5c-10.23,7.85-21.47,13.16-34.21,15.57
		c-3.97,0.75-7.64,3.1-11.38,4.68c-5.47-16.69,4.88-40.58,22.67-50.15c24.01-12.93,48.25-13.2,73.67-3.37
		c30.97,11.97,37.52,43.68,26.48,66.98c-2.9,6.12-6.88,11.75-10.53,17.51C399.3,313.47,395.08,316.87,389.59,318.59z"/>
	<path class="st11" d="M288,446.47c-7.8,1.58-12.81,6.25-16.2,13.42c-5.98,12.63-12.46,25.02-18.64,37.56
		c-0.78,1.58-1.04,3.41-1.54,5.13c0.5,0.21,1,0.43,1.5,0.64c0.9-1.39,1.93-2.7,2.67-4.17c6.42-12.79,12.73-25.63,19.2-38.39
		c4.96-9.77,17.85-14.65,28.07-10.69c1.31,0.51,2.7,1.48,3.46,2.63c5.56,8.36,0.88,21.05-8.85,23.9c-8.13,2.38-16.33,4.5-25.16,6.91
		c0.89,7.61,1.74,15.17,2.65,22.72c1.39,11.58-9.43,24.88-20.85,25.6c-6.33,0.4-13.7-6.44-13.97-13.75
		c-0.19-5.28-0.01-10.76,1.23-15.86c6.62-27.33,13.44-54.62,20.61-81.81c1.68-6.37,4.76-12.4,7.5-18.44c2.5-5.52,6.96-8.79,13-9.77
		c-2.85,10.11-4.48,20.69,1.47,29.75c3.17,4.83,3.57,9.17,3.66,14.18C287.88,439.51,287.94,442.99,288,446.47z"/>
	<path class="st12" d="M246.85,465.02c-24.75,1.8-49.49,3.58-74.24,5.4c-20.59,1.51-41.19,3.08-61.78,4.58
		c-1.96,0.14-3.95,0.02-6.57,0.02c0-4.81-0.27-9.45,0.2-14.01c0.11-1.09,2.61-2.63,4.12-2.77c16.91-1.54,33.84-2.92,50.78-4.21
		c30.72-2.33,61.44-4.57,92.16-6.85C249.96,453.13,248.4,459.08,246.85,465.02z"/>
	<path class="st13" d="M369.36,427.49c6.18-17.03,12.37-34.07,18.71-51.52c6.52,0.98,12.87,1.93,20.3,3.04
		c-13.01,16.83-25.56,33.05-38.1,49.27C369.97,428.01,369.66,427.75,369.36,427.49z"/>
	<path class="st13" d="M308.64,488.79c-0.5-4.08-0.91-7.48-1.42-11.61c15.43-4.22,30.83-8.44,46.07-12.61
		c0.41,0.64,0.55,0.76,0.58,0.92c2.14,10.85,2.14,10.85-8.32,13.59C333.53,482.24,321.51,485.4,308.64,488.79z"/>
	<path class="st14" d="M288,446.47c-0.06-3.48-0.12-6.96-0.18-10.43c-0.09-5.01-0.49-9.35-3.66-14.18
		c-5.95-9.06-4.32-19.64-1.47-29.75c0.71-1.33,1.42-2.66,2.13-3.99c0.09-0.36,0.18-0.71,0.28-1.07c0,0-0.11,0.06-0.11,0.06
		c0.36-0.28,0.71-0.56,1.07-0.85c1-0.81,2.01-1.61,3.01-2.42c4.9-0.05,9.81-0.1,14.71-0.15c0.94,0.82,1.88,1.64,2.83,2.46
		c5.8,9.76,6.42,20.07,3.2,30.77c-0.24,0.79-0.38,1.8-0.93,2.29c-8.22,7.22-5.18,16.64-5.06,25.49c0.01,0.67,0.01,1.33,0.01,2
		c-1.05-0.28-2.1-0.57-3.15-0.85c0-5.89,0-11.78,0-17.65c-3.93,0-6.7,0-9.67,0c0,5.89,0,11.81,0,17.73
		C290.01,446.09,289.01,446.28,288,446.47z M283.01,404.52c0.79,4.95,1.19,8.73,2.02,12.42c1.12,4.96,4.46,7.65,9.54,7.96
		c5.15,0.31,9.12-1.75,11.24-6.56c3.83-8.65,3.26-17.5,0.47-26.25c-1.32-4.14-4.46-6.63-8.92-6.8c-4.43-0.17-8.52,1.16-10.25,5.55
		C285.27,395.53,284.18,400.51,283.01,404.52z"/>
	<path class="st15" d="M355.12,427.5c-10.69-14.96-21.37-29.92-32.43-45.4c5.87-1.79,11.33-3.45,17.28-5.26
		c5.59,16.83,11.11,33.45,16.63,50.07C356.11,427.11,355.62,427.3,355.12,427.5z"/>
	<path class="st16" d="M309.33,363.07c-18.87,1.69-37.74,3.37-56.62,5.06c-0.11-0.74-0.23-1.48-0.34-2.22
		c1.53-0.42,3.04-1.09,4.59-1.23c16.74-1.55,33.48-3.03,50.22-4.52C307.9,361.13,308.61,362.1,309.33,363.07z"/>
	<path class="st17" d="M293.85,300.39c-16.83,1.24-33.65,2.49-50.48,3.73c-0.06-0.85-0.13-1.7-0.19-2.55
		c16.81-2.35,33.82-2.8,50.72-4.28C293.88,298.32,293.86,299.35,293.85,300.39z"/>
	<path class="st18" d="M294.35,322.03c-15.53,1.31-31.07,2.62-46.6,3.94c-0.09-0.9-0.18-1.8-0.26-2.69
		c15.42-2.16,31.03-2.84,46.54-4.34C294.13,319.97,294.24,321,294.35,322.03z"/>
	<path class="st17" d="M298.94,342.64c-16.18,1.25-32.36,2.51-48.54,3.76c-0.16-0.62-0.32-1.23-0.48-1.85
		c1.39-0.5,2.75-1.34,4.17-1.46c14.59-1.22,29.2-2.33,43.8-3.46C298.23,340.63,298.58,341.64,298.94,342.64z"/>
	<path class="st19" d="M291.01,445.9c0-5.92,0-11.84,0-17.73c2.97,0,5.74,0,9.67,0c0,5.87,0,11.76,0,17.65
		C297.45,445.84,294.23,445.87,291.01,445.9z"/>
	<path class="st20" d="M303.79,383.67c-4.9,0.05-9.81,0.1-14.71,0.16c-0.04-0.31-0.07-0.63-0.09-0.94
		c8.18-0.69,16.36-1.38,24.54-2.08C310.28,381.76,307.03,382.72,303.79,383.67z"/>
	<path class="st21" d="M381.67,330.21c1.22,3.45,2.41,6.8,3.8,10.7C378.8,337.39,377.92,334.61,381.67,330.21z"/>
	<path class="st15" d="M356.78,428.44c-0.05,0.1-0.11,0.19-0.16,0.29c-0.14-0.11-0.28-0.21-0.42-0.32c0.1-0.1,0.2-0.19,0.3-0.29
		C356.6,428.23,356.69,428.34,356.78,428.44z"/>
	<path class="st13" d="M370.27,428.27c-0.34,0.12-0.67,0.25-1.01,0.37c0.03-0.39,0.07-0.78,0.1-1.16
		C369.66,427.75,369.97,428.01,370.27,428.27z"/>
	<path class="st22" d="M202.56,425.86c3.45-0.27,6.07-0.48,9.34-0.74c-0.45-10.14-0.89-20.06-1.34-29.97
		c-0.53-11.65-0.91-23.3-1.69-34.93c-0.28-4.17,1.18-5.61,5.16-5.81c6.15-0.31,12.28-0.94,18.41-1.58c3.24-0.34,4.44,0.91,4.58,4.15
		c0.89,21.3,1.84,42.6,2.96,63.89c0.21,4.01-0.98,5.62-5.1,5.91c-27.4,1.96-54.79,4.11-82.18,6.21c-7.97,0.61-15.93,1.29-23.91,1.83
		c-1.57,0.11-3.17-0.29-4.76-0.46c-0.02-0.57-0.04-1.14-0.06-1.71c3.09-0.55,6.19-1.09,10.07-1.78c0-1.6,0.02-3.35,0-5.09
		c-0.55-35.48-1.04-70.95-1.77-106.43c-0.08-3.96,0.69-5.68,4.93-5.82c6.15-0.2,12.3-0.84,18.4-1.61c4.09-0.52,5.49,0.67,5.57,4.99
		c0.51,30.81,1.3,61.61,1.94,92.42c0.13,6.29,0.02,12.59,0.02,19.42c4.19-0.29,7.26-0.51,10.97-0.77c0-1.96,0.04-3.72-0.01-5.49
		c-0.68-27.31-1.28-54.62-2.16-81.92c-0.15-4.7,1.15-6.61,6.02-6.61c5.31,0,10.67-0.49,15.92-1.31c4.55-0.71,5.87,0.93,5.98,5.27
		c0.68,26.64,1.54,53.28,2.36,79.91C202.29,420.28,202.42,422.74,202.56,425.86z M137.44,431c6.25-0.45,11.87-1.06,17.5-1.18
		c4.2-0.09,5.59-1.47,5.47-5.92c-0.95-35.09-1.62-70.18-2.4-105.28c-0.02-1.12-0.28-2.24-0.47-3.65
		c-5.85,0.48-11.46,1.09-17.09,1.35c-3.69,0.17-5.02,1.42-4.94,5.42c0.69,34.76,1.13,69.53,1.65,104.29
		C137.18,427.51,137.32,428.97,137.44,431z M175.07,337.41c0.8,30.42,1.58,60.17,2.37,90.54c7.51-0.61,14.51-1.18,21.94-1.79
		c-0.96-30.43-1.9-60.14-2.86-90.48C189.2,336.27,182.48,336.82,175.07,337.41z M211.91,357.84c1.09,22.78,2.15,44.79,3.22,67.21
		c7.45-0.6,14.33-1.16,21.71-1.75c-1.03-22.65-2.04-44.81-3.06-67.47C226.36,356.51,219.46,357.14,211.91,357.84z"/>
	<path class="st22" d="M288.99,382.88c0.01,0.32,0.04,0.63,0.09,0.94c-1,0.81-2.01,1.61-3.01,2.42c-0.36,0.28-0.71,0.57-1.07,0.85
		c0,0,0.11-0.06,0.11-0.06c-6.71,0.53-13.42,1.06-20.13,1.59c-3.08,0.25-6.15,0.51-9.22,0.77c-0.07-0.95-0.15-1.9-0.22-2.86
		C266.68,385.32,277.83,384.1,288.99,382.88z"/>
	<path class="st23" d="M334.95,301.72c-1.86,6.6-3.72,13.21-5.97,21.19c6.18-1.59,10.88-2.79,16.6-4.27
		c-3.29,4.37-13.01,7.91-16.29,6.61c-0.91-0.36-2.12-1.46-2.17-2.28c-0.5-7.97,2.39-14.99,5.84-21.81
		C333.63,301.35,334.29,301.53,334.95,301.72z"/>
	<path class="st24" d="M364.33,292.61c-7.11-11.68-13.86-6.14-20.48,0.23c-0.64-3.68,0.48-5.4,4.91-8.24
		c4.19-2.67,8.65-2.71,12.63-0.02c2.01,1.36,3.12,4.04,4.64,6.12C365.46,291.33,364.89,291.97,364.33,292.61z"/>
	<path class="st23" d="M307.66,292.54c-0.43-4.13,5.36-9.13,10.86-9.35c6.32-0.26,10.64,3.24,10.61,8.36
		c-3.5-1.75-7.16-5.1-10.6-4.89C314.8,286.89,311.27,290.44,307.66,292.54z"/>
	<path class="st25" d="M283.01,404.52c1.17-4.01,2.26-8.99,4.1-13.68c1.73-4.39,5.82-5.73,10.25-5.55c4.46,0.17,7.6,2.67,8.92,6.8
		c2.79,8.75,3.36,17.6-0.47,26.25c-2.13,4.8-6.09,6.86-11.24,6.56c-5.08-0.3-8.42-2.99-9.54-7.96
		C284.2,413.25,283.8,409.47,283.01,404.52z"/>
	<path class="st8" d="M285,387.09c0.36-0.28,0.71-0.57,1.07-0.85C285.71,386.53,285.35,386.81,285,387.09z"/>
	<path class="st26" d="M137.44,431c-0.12-2.03-0.27-3.5-0.29-4.96c-0.53-34.77-0.96-69.53-1.65-104.29
		c-0.08-3.99,1.26-5.24,4.94-5.42c5.63-0.27,11.24-0.87,17.09-1.35c0.19,1.41,0.45,2.53,0.47,3.65c0.78,35.09,1.45,70.19,2.4,105.28
		c0.12,4.44-1.27,5.83-5.47,5.92C149.31,429.94,143.69,430.56,137.44,431z"/>
	<path class="st12" d="M175.07,337.41c7.4-0.6,14.13-1.14,21.45-1.73c0.96,30.33,1.9,60.05,2.86,90.48
		c-7.43,0.61-14.43,1.18-21.94,1.79C176.65,397.58,175.87,367.84,175.07,337.41z"/>
	<path class="st12" d="M211.91,357.84c7.54-0.69,14.44-1.33,21.87-2.01c1.03,22.66,2.04,44.82,3.06,67.47
		c-7.38,0.6-14.26,1.15-21.71,1.75C214.06,402.63,213,380.62,211.91,357.84z"/>
</g>
</svg>
